<svg width="120" height="120" viewBox="0 0 120 120" fill="none" xmlns="http://www.w3.org/2000/svg">
<circle cx="60" cy="60" r="59.5" stroke="#D0D5DD"/>
<path d="M38.8139 44.7686C42.3719 43.4246 46.043 42.3988 49.7852 41.7048L53.8765 45.7685H64.9441L69.034 41.7048C72.776 42.3989 76.4471 43.4246 80.0053 44.7686C81.579 45.3301 82.9396 46.3617 83.9017 47.7208C84.8631 49.0807 85.3783 50.7018 85.3768 52.3639V73.0039C85.3674 74.6776 84.8385 76.3081 83.8626 77.673C82.8868 79.0379 81.5116 80.0709 79.9242 80.631C73.4847 83.0483 66.6496 84.2569 59.7668 84.1943H59.0524C52.1687 84.257 45.3338 83.0482 38.895 80.631C37.3077 80.0709 35.9325 79.0379 34.9566 77.673C33.9807 76.3082 33.4518 74.6776 33.4424 73.0039V52.3639C33.4409 50.7018 33.9561 49.0807 34.9175 47.7208C35.8797 46.3616 37.2403 45.3301 38.8139 44.7686Z" stroke="black" stroke-width="2"/>
<path d="M59.4092 24.0004C52.2465 23.9646 45.2865 26.3463 39.6833 30.7521C35.8932 33.6931 32.83 37.4477 30.7265 41.7312C28.623 46.0147 27.5332 50.7149 27.5411 55.4756V69.6395C27.5411 75.0654 29.7234 80.2695 33.6082 84.1062C37.4929 87.9429 42.762 90.0984 48.2558 90.0984H70.564C76.0578 90.0984 81.3269 87.9429 85.2116 84.1062C89.0963 80.2695 91.2787 75.0654 91.2787 69.6395V55.4756C91.2787 49.9505 89.8062 44.5226 87.0092 39.738C84.2122 34.9534 80.1887 30.9798 75.3443 28.2172C70.4999 25.4547 65.004 24.0004 59.4099 24.0004H59.4092Z" stroke="black" stroke-width="2"/>
<path d="M35.8027 86.5574V88.2062C35.8027 89.1998 36.3002 94.2002 37.1854 94.9027C38.0707 95.6051 39.2721 96 40.524 96H78.2946C79.5466 96 80.7481 95.6052 81.6332 94.9027C82.5183 94.2001 83.0159 89.1997 83.0159 88.2062V86.5574" stroke="black" stroke-width="2"/>
<path d="M91.458 53.5083V71.2132C93.6474 70.4667 94.9958 69.0868 94.999 67.5927V57.1285C94.9958 55.6346 93.6474 54.2548 91.458 53.5083Z" stroke="black" stroke-width="2"/>
<path d="M27.541 53.5083V71.2132C25.3516 70.4667 24.0032 69.0868 24 67.5927V57.1285C24.0032 55.6346 25.3516 54.2548 27.541 53.5083Z" stroke="black" stroke-width="2"/>
</svg>
