<svg width="917" height="710" viewBox="0 0 917 710" fill="none" xmlns="http://www.w3.org/2000/svg">
<g opacity="0.6">
<path d="M838.423 135.218C849.049 153.623 848.695 177.305 838.791 204.472C828.888 231.635 809.465 262.193 782.107 294.248C727.396 358.353 641.04 428.336 536.003 488.98C430.966 549.623 327.18 589.417 244.308 604.746C202.869 612.411 166.693 613.952 138.218 608.947C109.739 603.942 89.0528 592.407 78.4263 574.002C67.7998 555.596 68.154 531.914 78.0585 504.747C87.9614 477.585 107.384 447.026 134.742 414.972C189.453 350.866 275.809 280.883 380.846 220.24C485.883 159.596 589.669 119.802 672.541 104.473C713.98 96.8079 750.156 95.2667 778.631 100.272C807.11 105.277 827.796 116.812 838.423 135.218Z" stroke="#101828" stroke-width="1.24126"/>
<path d="M697.292 215.982C703.934 227.486 703.724 242.318 697.493 259.391C691.263 276.459 679.043 295.679 661.816 315.854C627.365 356.201 572.984 400.264 506.833 438.456C440.682 476.649 375.332 501.712 323.165 511.374C297.079 516.206 274.324 517.179 256.428 514.04C238.527 510.9 225.577 503.666 218.935 492.162C212.294 480.658 212.503 465.826 218.734 448.753C224.964 431.685 237.185 412.465 254.412 392.29C288.862 351.943 343.243 307.88 409.394 269.688C475.546 231.495 540.896 206.432 593.062 196.77C619.149 191.938 641.903 190.965 659.8 194.104C677.701 197.244 690.651 204.478 697.292 215.982Z" stroke="#101828" stroke-width="1.24126"/>
<path d="M569.687 289.656C572.725 294.918 572.653 301.743 569.757 309.679C566.862 317.611 561.173 326.565 553.13 335.984C537.049 354.818 511.648 375.403 480.734 393.251C449.82 411.099 419.292 422.805 394.941 427.315C382.762 429.57 372.163 430.02 363.846 428.561C355.525 427.102 349.579 423.752 346.541 418.489C343.503 413.227 343.575 406.402 346.471 398.466C349.366 390.534 355.055 381.58 363.098 372.161C379.179 353.327 404.58 332.742 435.494 314.894C466.408 297.046 496.936 285.34 521.287 280.83C533.466 278.575 544.065 278.125 552.382 279.584C560.703 281.043 566.649 284.393 569.687 289.656Z" stroke="#101828" stroke-width="1.24126"/>
<circle cx="475.181" cy="520.938" r="9.93005" fill="#F9FAFB" stroke="#101828" stroke-width="1.24126"/>
<circle cx="369.674" cy="364.54" r="9.93005" fill="#F9FAFB" stroke="#101828" stroke-width="1.24126"/>
<circle cx="468.975" cy="173.386" r="9.93005" fill="#F9FAFB" stroke="#101828" stroke-width="1.24126"/>
<circle cx="218.24" cy="486.183" r="9.93005" fill="#F9FAFB" stroke="#101828" stroke-width="1.24126"/>
<circle cx="652.681" cy="327.302" r="9.93005" fill="#F9FAFB" stroke="#101828" stroke-width="1.24126"/>
<circle cx="641.508" cy="192.005" r="5.58565" fill="#101828"/>
<circle cx="550.897" cy="338.473" r="5.58565" fill="#101828"/>
<circle cx="218.241" cy="607.826" r="5.58565" fill="#101828"/>
<circle cx="413.118" cy="484.941" r="5.58565" fill="#101828"/>
<circle cx="846.316" cy="178.351" r="5.58565" fill="#101828"/>
</g>
</svg>
