<svg width="1200" height="630" viewBox="0 0 1200 630" fill="none" xmlns="http://www.w3.org/2000/svg">
<g clip-path="url(#clip0_4886_19850)">
<rect width="1200" height="630" fill="black"/>
<path d="M393.201 394.021C436.837 394.021 472.212 358.647 472.212 315.011C472.212 271.374 436.837 236 393.201 236C372.559 236 353.765 243.916 339.691 256.878C363.688 266.874 380.558 290.552 380.558 318.171C380.558 343.906 365.911 366.219 344.499 377.231C357.919 387.75 374.827 394.021 393.201 394.021Z" fill="white"/>
<path fill-rule="evenodd" clip-rule="evenodd" d="M361.813 318.171C361.813 344.353 340.588 365.577 314.406 365.577C288.225 365.577 267 344.353 267 318.171C267 291.989 288.225 270.765 314.406 270.765C340.588 270.765 361.813 291.989 361.813 318.171ZM342.85 318.171C342.85 333.88 330.115 346.615 314.406 346.615C298.697 346.615 285.963 333.88 285.963 318.171C285.963 302.462 298.697 289.727 314.406 289.727C330.115 289.727 342.85 302.462 342.85 318.171Z" fill="white"/>
<path d="M524.081 283.219H491.742V267.605H574.187V283.219H541.848V355.395H524.081V283.219Z" fill="white"/>
<path d="M593.131 267.605H610.898V302.183H665.376V267.605H683.199V355.395H665.376V317.405H610.898V355.395H593.131V267.605Z" fill="white"/>
<path d="M782.682 267.605H708.083V355.395H783.859V339.836H725.85V318.037H776.181V303.377H725.85V283.219H782.682V267.605Z" fill="white"/>
<path d="M801.346 267.605H819.225V355.395H801.346V267.605Z" fill="white"/>
<path d="M890.629 267.605H871.797L830.658 355.395H849.378L881.381 286.084L914.336 355.395H933L890.629 267.605Z" fill="white"/>
<path d="M258.145 148.733L258.562 160.347L270.176 160.763L258.562 161.18L258.145 172.794L257.728 161.18L246.115 160.763L257.728 160.347L258.145 148.733Z" fill="white"/>
<path d="M1177.63 623.086L1178.05 634.7L1189.67 635.117L1178.05 635.534L1177.63 647.148L1177.22 635.534L1165.6 635.117L1177.22 634.7L1177.63 623.086Z" fill="white"/>
<path d="M39.8739 85.1419L40.2907 96.7558L51.9046 97.1726L40.2907 97.5895L39.8739 109.203L39.4571 97.5895L27.8432 97.1726L39.4571 96.7558L39.8739 85.1419Z" fill="white"/>
<path d="M1010.92 229.51L1011.34 241.124L1022.95 241.541L1011.34 241.958L1010.92 253.572L1010.51 241.958L998.893 241.541L1010.51 241.124L1010.92 229.51Z" fill="white"/>
<path d="M536.57 -19.6971L536.987 -8.08322L548.601 -7.66638L536.987 -7.24953L536.57 4.36433L536.153 -7.24953L524.539 -7.66638L536.153 -8.08322L536.57 -19.6971Z" fill="white"/>
<path d="M1154.03 20L1154.45 31.6139L1166.06 32.0307L1154.45 32.4475L1154.03 44.0614L1153.61 32.4475L1142 32.0307L1153.61 31.6139L1154.03 20Z" fill="white"/>
<path d="M1075.37 143.577L1076.06 162.657L1095.14 163.342L1076.06 164.026L1075.37 183.106L1074.69 164.026L1055.61 163.342L1074.69 162.657L1075.37 143.577Z" fill="white"/>
<path d="M357.468 66L358.004 80.9321L372.936 81.468L358.004 82.004L357.468 96.9361L356.932 82.004L342 81.468L356.932 80.9321L357.468 66Z" fill="white"/>
<path d="M937.021 473.562L937.557 488.494L952.489 489.03L937.557 489.566L937.021 504.498L936.485 489.566L921.553 489.03L936.485 488.494L937.021 473.562Z" fill="white"/>
<path d="M273.613 184.825L274.149 199.757L289.081 200.293L274.149 200.829L273.613 215.761L273.077 200.829L258.145 200.293L273.077 199.757L273.613 184.825Z" fill="white"/>
<path d="M148.468 29L149.004 43.9321L163.936 44.468L149.004 45.004L148.468 59.9361L147.932 45.004L133 44.468L147.932 43.9321L148.468 29Z" fill="white"/>
<path d="M251.271 349.817L252.104 373.045L275.332 373.879L252.104 374.712L251.271 397.94L250.437 374.712L227.209 373.879L250.437 373.045L251.271 349.817Z" fill="white"/>
<path d="M730.78 202.012L731.257 215.285L744.53 215.761L731.257 216.237L730.78 229.51L730.304 216.237L717.031 215.761L730.304 215.285L730.78 202.012Z" fill="white"/>
<path d="M619.066 379.035L619.543 392.308L632.816 392.784L619.543 393.261L619.066 406.534L618.59 393.261L605.317 392.784L618.59 392.308L619.066 379.035Z" fill="white"/>
<path d="M570.944 126.39L571.539 142.981L588.13 143.577L571.539 144.172L570.944 160.763L570.348 144.172L553.757 143.577L570.348 142.981L570.944 126.39Z" fill="white"/>
<path d="M62.2166 389.347L62.8121 405.938L79.4034 406.534L62.8121 407.129L62.2166 423.72L61.6211 407.129L45.0299 406.534L61.6211 405.938L62.2166 389.347Z" fill="white"/>
<path d="M519.383 179.669L520.098 199.578L540.007 200.293L520.098 201.007L519.383 220.917L518.669 201.007L498.759 200.293L518.669 199.578L519.383 179.669Z" fill="white"/>
<path d="M407.67 356.692L408.384 376.601L428.294 377.316L408.384 378.031L407.67 397.94L406.955 378.031L387.046 377.316L406.955 376.601L407.67 356.692Z" fill="white"/>
<path d="M1145.62 511L1146.34 530.909L1166.25 531.624L1146.34 532.339L1145.62 552.248L1144.91 532.339L1125 531.624L1144.91 530.909L1145.62 511Z" fill="white"/>
<path d="M798.624 44L799.339 63.9095L819.248 64.6241L799.339 65.3387L798.624 85.2481L797.909 65.3387L778 64.6241L797.909 63.9095L798.624 44Z" fill="white"/>
<path d="M1113.05 329L1113.67 346.421L1131.09 347.046L1113.67 347.671L1113.05 365.092L1112.42 347.671L1095 347.046L1112.42 346.421L1113.05 329Z" fill="white"/>
<path d="M879.445 155.607L880.07 173.028L897.491 173.653L880.07 174.279L879.445 191.7L878.82 174.279L861.399 173.653L878.82 173.028L879.445 155.607Z" fill="white"/>
<circle cx="599.716" cy="986.716" r="551.216" stroke="white"/>
<circle cx="917.893" cy="538.558" r="12.7368" fill="black" stroke="white"/>
<circle cx="357.276" cy="491.84" r="6.50771" fill="white" stroke="white"/>
</g>
<defs>
<clipPath id="clip0_4886_19850">
<rect width="1200" height="630" fill="white"/>
</clipPath>
</defs>
</svg>
