<svg width="20" height="20" viewBox="0 0 20 20" fill="none" xmlns="http://www.w3.org/2000/svg">
<path d="M18.75 11C19.3023 11 19.75 10.5523 19.75 10C19.75 9.44771 19.3023 9 18.75 9V11ZM1.25 10L0.542893 9.29289C0.152369 9.68342 0.152369 10.3166 0.542893 10.7071L1.25 10ZM9.29289 19.4571C9.68342 19.8476 10.3166 19.8476 10.7071 19.4571C11.0976 19.0666 11.0976 18.4334 10.7071 18.0429L9.29289 19.4571ZM10.7071 1.95711C11.0976 1.56658 11.0976 0.933417 10.7071 0.542893C10.3166 0.152369 9.68342 0.152369 9.29289 0.542893L10.7071 1.95711ZM18.75 9H1.25V11H18.75V9ZM10.7071 18.0429L1.95711 9.29289L0.542893 10.7071L9.29289 19.4571L10.7071 18.0429ZM1.95711 10.7071L10.7071 1.95711L9.29289 0.542893L0.542893 9.29289L1.95711 10.7071Z" fill="#101828"/>
</svg>
