<svg width="55" height="14" viewBox="0 0 55 14" fill="none" xmlns="http://www.w3.org/2000/svg">
<rect y="0.5" width="55" height="13" rx="6.5" fill="#8098F9"/>
<g clip-path="url(#clip0_3726_47471)">
<path d="M15.6663 4.83268H16.1663C16.1663 4.64539 16.0617 4.4738 15.8951 4.3881C15.7286 4.3024 15.5281 4.31695 15.3757 4.42582L15.6663 4.83268ZM13.333 6.49935L13.0424 6.09248C12.911 6.18634 12.833 6.33787 12.833 6.49935C12.833 6.66082 12.911 6.81236 13.0424 6.90622L13.333 6.49935ZM15.6663 8.16602L15.3757 8.57288C15.5281 8.68174 15.7286 8.6963 15.8951 8.6106C16.0617 8.5249 16.1663 8.35331 16.1663 8.16602H15.6663ZM15.3757 4.42582L13.0424 6.09248L13.6236 6.90622L15.957 5.23955L15.3757 4.42582ZM13.0424 6.90622L15.3757 8.57288L15.957 7.75915L13.6236 6.09248L13.0424 6.90622ZM16.1663 8.16602V4.83268H15.1663V8.16602H16.1663ZM8.99967 4.66602H12.6663V3.66602H8.99967V4.66602ZM12.6663 4.66602C12.7584 4.66602 12.833 4.74063 12.833 4.83268H13.833C13.833 4.18835 13.3107 3.66602 12.6663 3.66602V4.66602ZM12.833 4.83268V8.16602H13.833V4.83268H12.833ZM12.833 8.16602C12.833 8.25806 12.7584 8.33268 12.6663 8.33268V9.33268C13.3107 9.33268 13.833 8.81035 13.833 8.16602H12.833ZM12.6663 8.33268H8.99967V9.33268H12.6663V8.33268ZM8.99967 8.33268C8.90763 8.33268 8.83301 8.25806 8.83301 8.16602H7.83301C7.83301 8.81035 8.35534 9.33268 8.99967 9.33268V8.33268ZM8.83301 8.16602V4.83268H7.83301V8.16602H8.83301ZM8.83301 4.83268C8.83301 4.74063 8.90763 4.66602 8.99967 4.66602V3.66602C8.35534 3.66602 7.83301 4.18835 7.83301 4.83268H8.83301Z" fill="white"/>
</g>
<path d="M23.3797 9.564C22.9531 9.564 22.5557 9.492 22.1877 9.348C21.8251 9.204 21.5104 9.004 21.2437 8.748C20.9771 8.48667 20.7691 8.18267 20.6197 7.836C20.4704 7.48933 20.3957 7.11067 20.3957 6.7C20.3957 6.28933 20.4704 5.91067 20.6197 5.564C20.7691 5.21733 20.9771 4.916 21.2437 4.66C21.5104 4.39867 21.8251 4.196 22.1877 4.052C22.5504 3.908 22.9477 3.836 23.3797 3.836C23.8064 3.836 24.1984 3.908 24.5557 4.052C24.9184 4.19067 25.2331 4.39067 25.4997 4.652C25.7717 4.908 25.9797 5.20933 26.1237 5.556C26.2731 5.90267 26.3477 6.284 26.3477 6.7C26.3477 7.116 26.2731 7.49733 26.1237 7.844C25.9797 8.19067 25.7717 8.49467 25.4997 8.756C25.2331 9.012 24.9184 9.212 24.5557 9.356C24.1984 9.49467 23.8064 9.564 23.3797 9.564ZM23.3797 8.852C23.6891 8.852 23.9744 8.79867 24.2357 8.692C24.5024 8.58533 24.7317 8.436 24.9237 8.244C25.1211 8.04667 25.2731 7.81733 25.3797 7.556C25.4917 7.29467 25.5477 7.00933 25.5477 6.7C25.5477 6.39067 25.4917 6.10533 25.3797 5.844C25.2731 5.58267 25.1211 5.356 24.9237 5.164C24.7317 4.96667 24.5024 4.81467 24.2357 4.708C23.9744 4.60133 23.6891 4.548 23.3797 4.548C23.0651 4.548 22.7744 4.60133 22.5077 4.708C22.2464 4.81467 22.0171 4.96667 21.8197 5.164C21.6224 5.356 21.4677 5.58267 21.3557 5.844C21.2491 6.10533 21.1957 6.39067 21.1957 6.7C21.1957 7.00933 21.2491 7.29467 21.3557 7.556C21.4677 7.81733 21.6224 8.04667 21.8197 8.244C22.0171 8.436 22.2464 8.58533 22.5077 8.692C22.7744 8.79867 23.0651 8.852 23.3797 8.852ZM29.7225 5.22C30.0691 5.22 30.3731 5.28667 30.6345 5.42C30.9011 5.55333 31.1091 5.756 31.2585 6.028C31.4078 6.3 31.4825 6.644 31.4825 7.06V9.5H30.7145V7.148C30.7145 6.73733 30.6131 6.428 30.4105 6.22C30.2131 6.012 29.9331 5.908 29.5705 5.908C29.2985 5.908 29.0611 5.96133 28.8585 6.068C28.6558 6.17467 28.4985 6.332 28.3865 6.54C28.2798 6.748 28.2265 7.00667 28.2265 7.316V9.5H27.4585V5.26H28.1945V6.404L28.0745 6.1C28.2131 5.82267 28.4265 5.60667 28.7145 5.452C29.0025 5.29733 29.3385 5.22 29.7225 5.22ZM32.9038 9.5V3.564H33.6718V9.5H32.9038ZM35.1382 9.5V5.26H35.9062V9.5H35.1382ZM35.5222 4.444C35.3728 4.444 35.2475 4.396 35.1462 4.3C35.0502 4.204 35.0022 4.08667 35.0022 3.948C35.0022 3.804 35.0502 3.684 35.1462 3.588C35.2475 3.492 35.3728 3.444 35.5222 3.444C35.6715 3.444 35.7942 3.492 35.8902 3.588C35.9915 3.67867 36.0422 3.79333 36.0422 3.932C36.0422 4.076 35.9942 4.19867 35.8982 4.3C35.8022 4.396 35.6768 4.444 35.5222 4.444ZM39.6365 5.22C39.9832 5.22 40.2872 5.28667 40.5485 5.42C40.8152 5.55333 41.0232 5.756 41.1725 6.028C41.3219 6.3 41.3965 6.644 41.3965 7.06V9.5H40.6285V7.148C40.6285 6.73733 40.5272 6.428 40.3245 6.22C40.1272 6.012 39.8472 5.908 39.4845 5.908C39.2125 5.908 38.9752 5.96133 38.7725 6.068C38.5699 6.17467 38.4125 6.332 38.3005 6.54C38.1939 6.748 38.1405 7.00667 38.1405 7.316V9.5H37.3725V5.26H38.1085V6.404L37.9885 6.1C38.1272 5.82267 38.3405 5.60667 38.6285 5.452C38.9165 5.29733 39.2525 5.22 39.6365 5.22ZM44.7058 9.548C44.2525 9.548 43.8525 9.45467 43.5058 9.268C43.1645 9.08133 42.8978 8.82533 42.7058 8.5C42.5192 8.17467 42.4258 7.80133 42.4258 7.38C42.4258 6.95867 42.5165 6.58533 42.6978 6.26C42.8845 5.93467 43.1378 5.68133 43.4578 5.5C43.7832 5.31333 44.1485 5.22 44.5538 5.22C44.9645 5.22 45.3272 5.31067 45.6418 5.492C45.9565 5.67333 46.2018 5.92933 46.3778 6.26C46.5592 6.58533 46.6498 6.96667 46.6498 7.404C46.6498 7.436 46.6472 7.47333 46.6418 7.516C46.6418 7.55867 46.6392 7.59867 46.6338 7.636H43.0258V7.084H46.2338L45.9218 7.276C45.9272 7.004 45.8712 6.76133 45.7538 6.548C45.6365 6.33467 45.4738 6.16933 45.2658 6.052C45.0632 5.92933 44.8258 5.868 44.5538 5.868C44.2872 5.868 44.0498 5.92933 43.8418 6.052C43.6338 6.16933 43.4712 6.33733 43.3538 6.556C43.2365 6.76933 43.1778 7.01467 43.1778 7.292V7.42C43.1778 7.70267 43.2418 7.956 43.3698 8.18C43.5032 8.39867 43.6872 8.56933 43.9218 8.692C44.1565 8.81467 44.4258 8.876 44.7298 8.876C44.9805 8.876 45.2072 8.83333 45.4098 8.748C45.6178 8.66267 45.7992 8.53467 45.9538 8.364L46.3778 8.86C46.1858 9.084 45.9458 9.25467 45.6578 9.372C45.3752 9.48933 45.0578 9.548 44.7058 9.548Z" fill="white"/>
<defs>
<clipPath id="clip0_3726_47471">
<rect width="8" height="8" fill="white" transform="translate(8 2.5)"/>
</clipPath>
</defs>
</svg>
