<svg width="36" height="35" viewBox="0 0 36 35" fill="none" xmlns="http://www.w3.org/2000/svg">
<path d="M20.4998 2.91602C20.4998 1.5353 19.3805 0.416016 17.9998 0.416016C16.6191 0.416016 15.4998 1.5353 15.4998 2.91602H20.4998ZM15.4998 32.0827C15.4998 33.4634 16.6191 34.5827 17.9998 34.5827C19.3805 34.5827 20.4998 33.4634 20.4998 32.0827H15.4998ZM3.4165 14.9993C2.03579 14.9993 0.916504 16.1186 0.916504 17.4993C0.916504 18.8801 2.03579 19.9993 3.4165 19.9993V14.9993ZM32.5832 19.9993C33.9639 19.9993 35.0832 18.8801 35.0832 17.4993C35.0832 16.1186 33.9639 14.9993 32.5832 14.9993V19.9993ZM15.4998 2.91602V32.0827H20.4998V2.91602H15.4998ZM3.4165 19.9993H32.5832V14.9993H3.4165V19.9993Z" fill="#667085"/>
</svg>
