<svg width="17" height="18" viewBox="0 0 17 18" fill="none" xmlns="http://www.w3.org/2000/svg">
<path d="M11.3333 9.00033L12.3331 9.02115C12.3334 9.00727 12.3334 8.99338 12.3331 8.9795L11.3333 9.00033ZM5.66663 9.00033L4.66684 8.9795C4.66655 8.99338 4.66655 9.00727 4.66684 9.02115L5.66663 9.00033ZM14.5833 9.00033C14.5833 12.3601 11.8597 15.0837 8.49996 15.0837V17.0837C12.9643 17.0837 16.5833 13.4646 16.5833 9.00033H14.5833ZM8.49996 15.0837C5.14023 15.0837 2.41663 12.3601 2.41663 9.00033H0.416626C0.416626 13.4646 4.03566 17.0837 8.49996 17.0837V15.0837ZM2.41663 9.00033C2.41663 5.64059 5.14023 2.91699 8.49996 2.91699V0.916992C4.03566 0.916992 0.416626 4.53602 0.416626 9.00033H2.41663ZM8.49996 2.91699C11.8597 2.91699 14.5833 5.64059 14.5833 9.00033H16.5833C16.5833 4.53602 12.9643 0.916992 8.49996 0.916992V2.91699ZM1.41663 10.0003H15.5833V8.00033H1.41663V10.0003ZM7.76161 2.59142C9.36987 4.3521 10.2838 6.63703 10.3335 9.02115L12.3331 8.9795C12.2733 6.11067 11.1735 3.36121 9.2383 1.24257L7.76161 2.59142ZM10.3335 8.9795C10.2838 11.3636 9.36987 13.6485 7.76161 15.4092L9.2383 16.7581C11.1735 14.6394 12.2733 11.89 12.3331 9.02115L10.3335 8.9795ZM9.2383 15.4092C7.63005 13.6485 6.71608 11.3636 6.66641 8.9795L4.66684 9.02115C4.72661 11.89 5.82639 14.6394 7.76161 16.7581L9.2383 15.4092ZM6.66641 9.02115C6.71608 6.63703 7.63005 4.3521 9.2383 2.59142L7.76161 1.24257C5.82639 3.36121 4.72661 6.11067 4.66684 8.9795L6.66641 9.02115Z" fill="#98A2B3"/>
</svg>
