<svg width="56" height="56" viewBox="0 0 56 56" fill="none" xmlns="http://www.w3.org/2000/svg">
<rect width="56" height="56" rx="16" fill="#101828"/>
<circle cx="22.9089" cy="31.6364" r="2.18182" fill="white"/>
<path fill-rule="evenodd" clip-rule="evenodd" d="M29.4538 14.4546C21.9728 14.4546 15.9083 20.5191 15.9083 28C15.9083 35.481 21.9728 41.5455 29.4538 41.5455C36.9347 41.5455 42.9992 35.481 42.9992 28C42.9992 20.5191 36.9347 14.4546 29.4538 14.4546ZM13.9083 28C13.9083 19.4145 20.8683 12.4546 29.4538 12.4546C38.0393 12.4546 44.9992 19.4145 44.9992 28C44.9992 36.5855 38.0393 43.5455 29.4538 43.5455C20.8683 43.5455 13.9083 36.5855 13.9083 28Z" fill="white"/>
<path fill-rule="evenodd" clip-rule="evenodd" d="M29.454 21.7272C25.9896 21.7272 23.1812 24.5356 23.1812 27.9999C23.1812 31.4643 25.9896 34.2727 29.454 34.2727C32.9183 34.2727 35.7267 31.4643 35.7267 27.9999C35.7267 24.5356 32.9183 21.7272 29.454 21.7272ZM21.1812 27.9999C21.1812 23.431 24.8851 19.7272 29.454 19.7272C34.0229 19.7272 37.7267 23.431 37.7267 27.9999C37.7267 32.5688 34.0229 36.2727 29.454 36.2727C24.8851 36.2727 21.1812 32.5688 21.1812 27.9999Z" fill="white"/>
<path d="M17.8182 25.0909C17.8182 26.6975 16.5157 28 14.9091 28C13.3024 28 12 26.6975 12 25.0909C12 23.4842 13.3024 22.1818 14.9091 22.1818C16.5157 22.1818 17.8182 23.4842 17.8182 25.0909Z" fill="#101828"/>
<path fill-rule="evenodd" clip-rule="evenodd" d="M14.9091 23.1818C13.8547 23.1818 13 24.0365 13 25.0909C13 26.1452 13.8547 27 14.9091 27C15.9635 27 16.8182 26.1452 16.8182 25.0909C16.8182 24.0365 15.9635 23.1818 14.9091 23.1818ZM11 25.0909C11 22.9319 12.7502 21.1818 14.9091 21.1818C17.068 21.1818 18.8182 22.9319 18.8182 25.0909C18.8182 27.2498 17.068 29 14.9091 29C12.7502 29 11 27.2498 11 25.0909Z" fill="white"/>
<path d="M38 41.5C38 42.8807 36.8807 44 35.5 44C34.1193 44 33 42.8807 33 41.5C33 40.1193 34.1193 39 35.5 39C36.8807 39 38 40.1193 38 41.5Z" fill="white"/>
<path d="M36.7282 14.1818C36.7282 15.3868 35.7514 16.3636 34.5464 16.3636C33.3414 16.3636 32.3646 15.3868 32.3646 14.1818C32.3646 12.9768 33.3414 12 34.5464 12C35.7514 12 36.7282 12.9768 36.7282 14.1818Z" fill="white"/>
<path d="M38.1828 23.6363C38.1828 25.243 36.8803 26.5454 35.2737 26.5454C33.667 26.5454 32.3646 25.243 32.3646 23.6363C32.3646 22.0297 33.667 20.7272 35.2737 20.7272C36.8803 20.7272 38.1828 22.0297 38.1828 23.6363Z" fill="#101828"/>
<path fill-rule="evenodd" clip-rule="evenodd" d="M35.2737 21.7272C34.2193 21.7272 33.3646 22.5819 33.3646 23.6363C33.3646 24.6907 34.2193 25.5454 35.2737 25.5454C36.328 25.5454 37.1828 24.6907 37.1828 23.6363C37.1828 22.5819 36.328 21.7272 35.2737 21.7272ZM31.3646 23.6363C31.3646 21.4774 33.1147 19.7272 35.2737 19.7272C37.4326 19.7272 39.1828 21.4774 39.1828 23.6363C39.1828 25.7952 37.4326 27.5454 35.2737 27.5454C33.1147 27.5454 31.3646 25.7952 31.3646 23.6363Z" fill="white"/>
</svg>
