<svg width="56" height="56" viewBox="0 0 56 56" fill="none" xmlns="http://www.w3.org/2000/svg">
<rect width="56" height="56" rx="16" fill="#101828"/>
<path fill-rule="evenodd" clip-rule="evenodd" d="M17.9729 28C17.9729 22.4772 22.4501 18 27.9729 18C33.4958 18 37.9729 22.4772 37.9729 28C37.9729 28.165 37.9689 28.3291 37.961 28.4922C35.5902 29.7077 32.4038 30.9185 28.8011 31.8838C25.3977 32.7958 22.2064 33.3323 19.6204 33.5007C18.5791 31.9227 17.9729 30.0321 17.9729 28ZM17.3304 33.5494C16.8396 32.6101 16.4696 31.5979 16.2408 30.5331C15.5332 30.988 14.9815 31.4201 14.5942 31.8127C14.3016 32.1093 14.1378 32.3486 14.0587 32.5224C14.0208 32.6059 14.0076 32.6628 14.0034 32.6958C13.9996 32.7262 14.0029 32.7392 14.0039 32.7429C14.0049 32.7467 14.0083 32.7586 14.025 32.7812C14.0431 32.8056 14.0791 32.8454 14.1467 32.8956C14.2879 33.0002 14.5277 33.1211 14.9004 33.2306C15.4956 33.4053 16.313 33.5176 17.3304 33.5494ZM15.978 28.3518C14.8189 29.0231 13.8527 29.7166 13.1705 30.4081C12.4453 31.1431 11.7753 32.1532 12.072 33.2605C12.3591 34.3318 13.3857 34.8703 14.3369 35.1496C15.3539 35.4482 16.674 35.5717 18.169 35.5576C18.3248 35.5561 18.4832 35.5531 18.644 35.5486C20.8441 38.2641 24.2058 40 27.9729 40C34.0063 40 38.9997 35.5474 39.8464 29.7489C41.1479 29.0138 42.229 28.2469 42.9603 27.4799C43.6445 26.7624 44.2643 25.7828 43.9773 24.7115C43.6928 23.6498 42.6814 23.1118 41.7416 22.8312C40.8851 22.5754 39.8113 22.4457 38.5988 22.4188C36.59 18.6023 32.5854 16 27.9729 16C21.3455 16 15.9729 21.3726 15.9729 28C15.9729 28.1177 15.9746 28.2349 15.978 28.3518ZM39.4426 24.4612C39.7257 25.3798 39.9015 26.3454 39.9553 27.3435C40.63 26.899 41.1512 26.479 41.5129 26.0998C41.7809 25.8187 41.9281 25.594 41.998 25.4328C42.0315 25.3555 42.0428 25.3031 42.0463 25.2729C42.0494 25.245 42.0464 25.233 42.0454 25.2292C42.0444 25.2254 42.041 25.2136 42.0248 25.1916C42.0072 25.1677 41.9722 25.1287 41.9063 25.0793C41.7688 24.9763 41.5345 24.8566 41.1693 24.7475C40.7202 24.6134 40.1415 24.5152 39.4426 24.4612ZM37.5406 30.9175C36.2921 35.0172 32.4809 38 27.9729 38C25.3671 38 22.994 37.0033 21.2142 35.3703C23.6456 35.1125 26.4234 34.5915 29.3187 33.8157C32.4003 32.99 35.2223 31.9809 37.5406 30.9175Z" fill="white"/>
</svg>
