<svg width="188" height="181" viewBox="0 0 188 181" fill="none" xmlns="http://www.w3.org/2000/svg" className="animate-spin-left" >
   <path d="M127.635 72.4247C123.317 68.8421 118.482 65.7597 113.216 63.3251C113.12 63.2797 113.007 63.2989 112.931 63.3771C111.927 64.4049 110.752 65.7814 109.893 66.8807C104.192 64.3989 98.2829 62.8156 92.2266 62.1471C92.0394 60.7379 91.6752 58.9783 91.317 57.5858C91.2891 57.4829 91.201 57.4099 91.0963 57.3983C85.3221 56.8713 79.5939 57.1234 74.0585 58.0688C74.0109 58.0758 73.9661 58.0968 73.9311 58.1301C59.8975 70.4327 53.2362 84.3158 50.714 99.1137C50.7012 99.186 50.7226 99.2642 50.766 99.3218C56.0732 105.953 61.685 110.62 67.4445 114.259C67.5368 114.317 67.6532 114.308 67.7395 114.243C69.7705 112.608 71.6697 110.82 73.4096 108.871C73.5121 108.757 73.49 108.583 73.367 108.494C71.4792 107.133 69.7389 105.623 68.1101 104.002C67.9817 103.872 68.0279 103.651 68.1959 103.584C68.6825 103.389 69.1724 103.181 69.6448 102.965C69.7304 102.926 69.8312 102.939 69.9036 102.998C81.0008 112.169 94.692 115.837 108.738 113.404C108.831 113.386 108.926 113.425 108.983 113.503C109.284 113.926 109.604 114.353 109.931 114.767C110.043 114.909 109.975 115.124 109.799 115.173C107.572 115.784 105.316 116.199 102.998 116.431C102.847 116.446 102.743 116.589 102.775 116.739C103.332 119.301 104.083 121.799 104.997 124.223C105.035 124.325 105.135 124.391 105.244 124.387C112.082 124.123 119.275 122.888 127.187 119.799C127.256 119.771 127.31 119.717 127.335 119.648C133.419 103.388 132.994 87.7349 127.711 72.5437C127.701 72.4951 127.673 72.4546 127.635 72.4247ZM78.5726 97.1565C74.7652 96.1363 72.5659 91.7955 73.7177 87.4968C74.8695 83.1982 78.8838 80.5222 82.752 81.5587C86.6507 82.6034 88.8114 86.9668 87.6069 91.2184C86.455 95.5171 82.4408 98.193 78.5726 97.1565ZM104.249 104.037C100.442 103.016 98.2426 98.6755 99.3944 94.3769C100.546 90.0782 104.56 87.4023 108.429 88.4388C112.327 89.4835 114.488 93.8469 113.284 98.0985C112.132 102.397 108.148 105.081 104.249 104.037Z" fill="url(#paint34_linear_18_13045)" />
   <defs>
      <linearGradient id="paint34_linear_18_13045" x1="63.5296" y1="50.0081" x2="144.456" y2="71.7694" gradientUnits="userSpaceOnUse">
         <stop stop-color="#677172" />
         <stop offset="0.269002" stop-color="#8F999A" />
         <stop offset="0.588542" stop-color="#B9B5B5" />
         <stop offset="0.828125" stop-color="#938B93" />
         <stop offset="1" stop-color="#5E6364" />
      </linearGradient>
   </defs>
</svg>