<svg width="539" height="118" viewBox="0 0 539 118" fill="none" xmlns="http://www.w3.org/2000/svg">
<rect x="0.5" y="0.5" width="538" height="117" rx="9.5" fill="#F2F4F7"/>
<path d="M39.638 21.2L36.39 31H34.458L32.036 23.748L29.572 31H27.626L24.378 21.2H26.268L28.704 28.648L31.238 21.2H32.918L35.396 28.69L37.902 21.2H39.638ZM47.1622 28.732H42.2622L41.2962 31H39.4202L43.8302 21.2H45.6222L50.0462 31H48.1422L47.1622 28.732ZM46.5602 27.304L44.7122 23.02L42.8782 27.304H46.5602ZM57.8478 25.988H59.5698V29.894C59.0658 30.2953 58.4778 30.6033 57.8058 30.818C57.1338 31.0327 56.4432 31.14 55.7338 31.14C54.7352 31.14 53.8345 30.9253 53.0318 30.496C52.2292 30.0573 51.5992 29.4553 51.1418 28.69C50.6845 27.9247 50.4558 27.0613 50.4558 26.1C50.4558 25.1387 50.6845 24.2753 51.1418 23.51C51.5992 22.7447 52.2292 22.1473 53.0318 21.718C53.8438 21.2793 54.7538 21.06 55.7618 21.06C56.5832 21.06 57.3298 21.1953 58.0018 21.466C58.6738 21.7367 59.2385 22.1333 59.6958 22.656L58.5478 23.776C57.8012 23.0293 56.9005 22.656 55.8458 22.656C55.1552 22.656 54.5392 22.8007 53.9978 23.09C53.4658 23.3793 53.0458 23.7853 52.7378 24.308C52.4392 24.8307 52.2898 25.428 52.2898 26.1C52.2898 26.7533 52.4392 27.3413 52.7378 27.864C53.0458 28.3867 53.4658 28.7973 53.9978 29.096C54.5392 29.3947 55.1505 29.544 55.8318 29.544C56.5972 29.544 57.2692 29.376 57.8478 29.04V25.988ZM70.9723 31L70.9583 24.504L67.7383 29.88H66.9263L63.7063 24.588V31H61.9703V21.2H63.4683L67.3603 27.696L71.1823 21.2H72.6803L72.6943 31H70.9723ZM75.3414 21.2H77.1614V31H75.3414V21.2ZM88.2172 31.14C87.2279 31.14 86.3319 30.9253 85.5292 30.496C84.7359 30.0573 84.1106 29.4553 83.6532 28.69C83.2052 27.9247 82.9812 27.0613 82.9812 26.1C82.9812 25.1387 83.2099 24.2753 83.6672 23.51C84.1246 22.7447 84.7499 22.1473 85.5432 21.718C86.3459 21.2793 87.2419 21.06 88.2312 21.06C89.0339 21.06 89.7666 21.2 90.4292 21.48C91.0919 21.76 91.6519 22.166 92.1092 22.698L90.9332 23.804C90.2239 23.0387 89.3512 22.656 88.3152 22.656C87.6432 22.656 87.0412 22.8053 86.5092 23.104C85.9772 23.3933 85.5619 23.7993 85.2632 24.322C84.9646 24.8447 84.8152 25.4373 84.8152 26.1C84.8152 26.7627 84.9646 27.3553 85.2632 27.878C85.5619 28.4007 85.9772 28.8113 86.5092 29.11C87.0412 29.3993 87.6432 29.544 88.3152 29.544C89.3512 29.544 90.2239 29.1567 90.9332 28.382L92.1092 29.502C91.6519 30.034 91.0872 30.44 90.4152 30.72C89.7526 31 89.0199 31.14 88.2172 31.14ZM98.226 31.14C97.2274 31.14 96.3267 30.9253 95.524 30.496C94.7214 30.0573 94.0914 29.4553 93.634 28.69C93.1767 27.9153 92.948 27.052 92.948 26.1C92.948 25.148 93.1767 24.2893 93.634 23.524C94.0914 22.7493 94.7214 22.1473 95.524 21.718C96.3267 21.2793 97.2274 21.06 98.226 21.06C99.2247 21.06 100.125 21.2793 100.928 21.718C101.731 22.1473 102.361 22.7447 102.818 23.51C103.275 24.2753 103.504 25.1387 103.504 26.1C103.504 27.0613 103.275 27.9247 102.818 28.69C102.361 29.4553 101.731 30.0573 100.928 30.496C100.125 30.9253 99.2247 31.14 98.226 31.14ZM98.226 29.544C98.8794 29.544 99.4674 29.3993 99.99 29.11C100.513 28.8113 100.923 28.4007 101.222 27.878C101.521 27.346 101.67 26.7533 101.67 26.1C101.67 25.4467 101.521 24.8587 101.222 24.336C100.923 23.804 100.513 23.3933 99.99 23.104C99.4674 22.8053 98.8794 22.656 98.226 22.656C97.5727 22.656 96.9847 22.8053 96.462 23.104C95.9394 23.3933 95.5287 23.804 95.23 24.336C94.9314 24.8587 94.782 25.4467 94.782 26.1C94.782 26.7533 94.9314 27.346 95.23 27.878C95.5287 28.4007 95.9394 28.8113 96.462 29.11C96.9847 29.3993 97.5727 29.544 98.226 29.544ZM114.141 21.2V31H112.643L107.239 24.364V31H105.433V21.2H106.931L112.335 27.836V21.2H114.141Z" fill="#475467"/>
<rect x="120" y="19.5" width="67" height="13" rx="6.5" fill="#8098F9"/>
<path d="M134.667 28.5V27.8333C134.667 27.4797 134.527 27.1406 134.277 26.8905C134.027 26.6405 133.688 26.5 133.334 26.5H130.667C130.314 26.5 129.975 26.6405 129.725 26.8905C129.474 27.1406 129.334 27.4797 129.334 27.8333V28.5" stroke="white" stroke-linecap="round" stroke-linejoin="round"/>
<path d="M131.999 25.1667C132.736 25.1667 133.333 24.5697 133.333 23.8333C133.333 23.097 132.736 22.5 131.999 22.5C131.263 22.5 130.666 23.097 130.666 23.8333C130.666 24.5697 131.263 25.1667 131.999 25.1667Z" stroke="white" stroke-linecap="round" stroke-linejoin="round"/>
<path d="M141.113 28.5V22.9H141.913V28.5H141.113ZM145.742 24.22C146.089 24.22 146.393 24.2867 146.654 24.42C146.921 24.5533 147.129 24.756 147.278 25.028C147.427 25.3 147.502 25.644 147.502 26.06V28.5H146.734V26.148C146.734 25.7373 146.633 25.428 146.43 25.22C146.233 25.012 145.953 24.908 145.59 24.908C145.318 24.908 145.081 24.9613 144.878 25.068C144.675 25.1747 144.518 25.332 144.406 25.54C144.299 25.748 144.246 26.0067 144.246 26.316V28.5H143.478V24.26H144.214V25.404L144.094 25.1C144.233 24.8227 144.446 24.6067 144.734 24.452C145.022 24.2973 145.358 24.22 145.742 24.22ZM151.184 28.5V22.9H153.368C153.858 22.9 154.277 22.9773 154.624 23.132C154.97 23.2867 155.237 23.5107 155.424 23.804C155.61 24.0973 155.704 24.4467 155.704 24.852C155.704 25.2573 155.61 25.6067 155.424 25.9C155.237 26.188 154.97 26.412 154.624 26.572C154.277 26.7267 153.858 26.804 153.368 26.804H151.624L151.984 26.428V28.5H151.184ZM151.984 26.508L151.624 26.108H153.344C153.856 26.108 154.242 25.9987 154.504 25.78C154.77 25.5613 154.904 25.252 154.904 24.852C154.904 24.452 154.77 24.1427 154.504 23.924C154.242 23.7053 153.856 23.596 153.344 23.596H151.624L151.984 23.196V26.508ZM158.639 28.548C158.186 28.548 157.786 28.4547 157.439 28.268C157.098 28.0813 156.831 27.8253 156.639 27.5C156.453 27.1747 156.359 26.8013 156.359 26.38C156.359 25.9587 156.45 25.5853 156.631 25.26C156.818 24.9347 157.071 24.6813 157.391 24.5C157.717 24.3133 158.082 24.22 158.487 24.22C158.898 24.22 159.261 24.3107 159.575 24.492C159.89 24.6733 160.135 24.9293 160.311 25.26C160.493 25.5853 160.583 25.9667 160.583 26.404C160.583 26.436 160.581 26.4733 160.575 26.516C160.575 26.5587 160.573 26.5987 160.567 26.636H156.959V26.084H160.167L159.855 26.276C159.861 26.004 159.805 25.7613 159.687 25.548C159.57 25.3347 159.407 25.1693 159.199 25.052C158.997 24.9293 158.759 24.868 158.487 24.868C158.221 24.868 157.983 24.9293 157.775 25.052C157.567 25.1693 157.405 25.3373 157.287 25.556C157.17 25.7693 157.111 26.0147 157.111 26.292V26.42C157.111 26.7027 157.175 26.956 157.303 27.18C157.437 27.3987 157.621 27.5693 157.855 27.692C158.09 27.8147 158.359 27.876 158.663 27.876C158.914 27.876 159.141 27.8333 159.343 27.748C159.551 27.6627 159.733 27.5347 159.887 27.364L160.311 27.86C160.119 28.084 159.879 28.2547 159.591 28.372C159.309 28.4893 158.991 28.548 158.639 28.548ZM161.65 28.5V24.26H162.386V25.412L162.314 25.124C162.431 24.8307 162.629 24.6067 162.906 24.452C163.183 24.2973 163.525 24.22 163.93 24.22V24.964C163.898 24.9587 163.866 24.956 163.834 24.956C163.807 24.956 163.781 24.956 163.754 24.956C163.343 24.956 163.018 25.0787 162.778 25.324C162.538 25.5693 162.418 25.924 162.418 26.388V28.5H161.65ZM166.139 28.548C165.787 28.548 165.451 28.5 165.131 28.404C164.817 28.308 164.569 28.1907 164.387 28.052L164.707 27.444C164.889 27.5667 165.113 27.6707 165.379 27.756C165.646 27.8413 165.918 27.884 166.195 27.884C166.553 27.884 166.809 27.8333 166.963 27.732C167.123 27.6307 167.203 27.4893 167.203 27.308C167.203 27.1747 167.155 27.0707 167.059 26.996C166.963 26.9213 166.835 26.8653 166.675 26.828C166.521 26.7907 166.347 26.7587 166.155 26.732C165.963 26.7 165.771 26.6627 165.579 26.62C165.387 26.572 165.211 26.508 165.051 26.428C164.891 26.3427 164.763 26.228 164.667 26.084C164.571 25.9347 164.523 25.7373 164.523 25.492C164.523 25.236 164.595 25.012 164.739 24.82C164.883 24.628 165.086 24.4813 165.347 24.38C165.614 24.2733 165.929 24.22 166.291 24.22C166.569 24.22 166.849 24.2547 167.131 24.324C167.419 24.388 167.654 24.4813 167.835 24.604L167.507 25.212C167.315 25.084 167.115 24.996 166.907 24.948C166.699 24.9 166.491 24.876 166.283 24.876C165.947 24.876 165.697 24.932 165.531 25.044C165.366 25.1507 165.283 25.2893 165.283 25.46C165.283 25.604 165.331 25.716 165.427 25.796C165.529 25.8707 165.657 25.9293 165.811 25.972C165.971 26.0147 166.147 26.052 166.339 26.084C166.531 26.1107 166.723 26.148 166.915 26.196C167.107 26.2387 167.281 26.3 167.435 26.38C167.595 26.46 167.723 26.572 167.819 26.716C167.921 26.86 167.971 27.052 167.971 27.292C167.971 27.548 167.897 27.7693 167.747 27.956C167.598 28.1427 167.387 28.2893 167.115 28.396C166.843 28.4973 166.518 28.548 166.139 28.548ZM170.747 28.548C170.32 28.548 169.942 28.4547 169.611 28.268C169.28 28.0813 169.019 27.8253 168.827 27.5C168.635 27.1693 168.539 26.796 168.539 26.38C168.539 25.9587 168.635 25.5853 168.827 25.26C169.019 24.9347 169.28 24.6813 169.611 24.5C169.942 24.3133 170.32 24.22 170.747 24.22C171.168 24.22 171.544 24.3133 171.875 24.5C172.211 24.6813 172.472 24.9347 172.659 25.26C172.851 25.58 172.947 25.9533 172.947 26.38C172.947 26.8013 172.851 27.1747 172.659 27.5C172.472 27.8253 172.211 28.0813 171.875 28.268C171.544 28.4547 171.168 28.548 170.747 28.548ZM170.747 27.876C171.019 27.876 171.262 27.8147 171.475 27.692C171.694 27.5693 171.864 27.396 171.987 27.172C172.11 26.9427 172.171 26.6787 172.171 26.38C172.171 26.076 172.11 25.8147 171.987 25.596C171.864 25.372 171.694 25.1987 171.475 25.076C171.262 24.9533 171.019 24.892 170.747 24.892C170.475 24.892 170.232 24.9533 170.019 25.076C169.806 25.1987 169.635 25.372 169.507 25.596C169.379 25.8147 169.315 26.076 169.315 26.38C169.315 26.6787 169.379 26.9427 169.507 27.172C169.635 27.396 169.806 27.5693 170.019 27.692C170.232 27.8147 170.475 27.876 170.747 27.876ZM176.273 24.22C176.62 24.22 176.924 24.2867 177.185 24.42C177.452 24.5533 177.66 24.756 177.809 25.028C177.959 25.3 178.033 25.644 178.033 26.06V28.5H177.265V26.148C177.265 25.7373 177.164 25.428 176.961 25.22C176.764 25.012 176.484 24.908 176.121 24.908C175.849 24.908 175.612 24.9613 175.409 25.068C175.207 25.1747 175.049 25.332 174.937 25.54C174.831 25.748 174.777 26.0067 174.777 26.316V28.5H174.009V24.26H174.745V25.404L174.625 25.1C174.764 24.8227 174.977 24.6067 175.265 24.452C175.553 24.2973 175.889 24.22 176.273 24.22Z" fill="white"/>
<path d="M28.536 44.6C29.624 44.6 30.48 44.86 31.104 45.38C31.728 45.9 32.04 46.616 32.04 47.528C32.04 48.44 31.728 49.156 31.104 49.676C30.48 50.196 29.624 50.456 28.536 50.456H26.46V53H25.26V44.6H28.536ZM28.5 49.412C29.26 49.412 29.84 49.252 30.24 48.932C30.64 48.604 30.84 48.136 30.84 47.528C30.84 46.92 30.64 46.456 30.24 46.136C29.84 45.808 29.26 45.644 28.5 45.644H26.46V49.412H28.5ZM35.8924 46.58C36.7724 46.58 37.4444 46.796 37.9084 47.228C38.3804 47.66 38.6164 48.304 38.6164 49.16V53H37.5244V52.16C37.3324 52.456 37.0564 52.684 36.6964 52.844C36.3444 52.996 35.9244 53.072 35.4364 53.072C34.7244 53.072 34.1524 52.9 33.7204 52.556C33.2964 52.212 33.0844 51.76 33.0844 51.2C33.0844 50.64 33.2884 50.192 33.6964 49.856C34.1044 49.512 34.7524 49.34 35.6404 49.34H37.4644V49.112C37.4644 48.616 37.3204 48.236 37.0324 47.972C36.7444 47.708 36.3204 47.576 35.7604 47.576C35.3844 47.576 35.0164 47.64 34.6564 47.768C34.2964 47.888 33.9924 48.052 33.7444 48.26L33.2644 47.396C33.5924 47.132 33.9844 46.932 34.4404 46.796C34.8964 46.652 35.3804 46.58 35.8924 46.58ZM35.6284 52.184C36.0684 52.184 36.4484 52.088 36.7684 51.896C37.0884 51.696 37.3204 51.416 37.4644 51.056V50.168H35.6884C34.7124 50.168 34.2244 50.496 34.2244 51.152C34.2244 51.472 34.3484 51.724 34.5964 51.908C34.8444 52.092 35.1884 52.184 35.6284 52.184ZM42.5723 53.072C42.0523 53.072 41.5523 53.004 41.0723 52.868C40.5923 52.724 40.2163 52.544 39.9443 52.328L40.4243 51.416C40.7043 51.616 41.0443 51.776 41.4443 51.896C41.8443 52.016 42.2483 52.076 42.6562 52.076C43.6643 52.076 44.1683 51.788 44.1683 51.212C44.1683 51.02 44.1003 50.868 43.9643 50.756C43.8283 50.644 43.6563 50.564 43.4483 50.516C43.2483 50.46 42.9603 50.4 42.5843 50.336C42.0723 50.256 41.6523 50.164 41.3243 50.06C41.0043 49.956 40.7283 49.78 40.4963 49.532C40.2643 49.284 40.1483 48.936 40.1483 48.488C40.1483 47.912 40.3883 47.452 40.8683 47.108C41.3483 46.756 41.9923 46.58 42.8003 46.58C43.2243 46.58 43.6483 46.632 44.0723 46.736C44.4963 46.84 44.8443 46.98 45.1163 47.156L44.6243 48.068C44.1043 47.732 43.4923 47.564 42.7883 47.564C42.3003 47.564 41.9283 47.644 41.6723 47.804C41.4163 47.964 41.2883 48.176 41.2883 48.44C41.2883 48.648 41.3603 48.812 41.5043 48.932C41.6483 49.052 41.8243 49.14 42.0323 49.196C42.2483 49.252 42.5483 49.316 42.9323 49.388C43.4443 49.476 43.8563 49.572 44.1683 49.676C44.4883 49.772 44.7603 49.94 44.9843 50.18C45.2083 50.42 45.3203 50.756 45.3203 51.188C45.3203 51.764 45.0723 52.224 44.5763 52.568C44.0883 52.904 43.4203 53.072 42.5723 53.072ZM50.336 52.628C50.168 52.772 49.96 52.884 49.712 52.964C49.464 53.036 49.208 53.072 48.944 53.072C48.304 53.072 47.808 52.9 47.456 52.556C47.104 52.212 46.928 51.72 46.928 51.08V47.588H45.848V46.64H46.928V45.248H48.08V46.64H49.904V47.588H48.08V51.032C48.08 51.376 48.164 51.64 48.332 51.824C48.508 52.008 48.756 52.1 49.076 52.1C49.428 52.1 49.728 52 49.976 51.8L50.336 52.628ZM55.7434 50.792C55.4394 50.792 55.1794 50.688 54.9634 50.48C54.7554 50.272 54.6514 50.008 54.6514 49.688C54.6514 49.384 54.7594 49.128 54.9754 48.92C55.1914 48.704 55.4474 48.596 55.7434 48.596C56.0394 48.596 56.2914 48.704 56.4994 48.92C56.7154 49.128 56.8234 49.384 56.8234 49.688C56.8234 50.008 56.7154 50.272 56.4994 50.48C56.2914 50.688 56.0394 50.792 55.7434 50.792ZM69.9035 53L69.8915 46.88L66.8555 51.98H66.3035L63.2675 46.916V53H62.1155V44.6H63.0995L66.6035 50.504L70.0595 44.6H71.0435L71.0555 53H69.9035ZM75.7244 46.58C76.6044 46.58 77.2764 46.796 77.7404 47.228C78.2124 47.66 78.4484 48.304 78.4484 49.16V53H77.3564V52.16C77.1644 52.456 76.8884 52.684 76.5284 52.844C76.1764 52.996 75.7564 53.072 75.2684 53.072C74.5564 53.072 73.9844 52.9 73.5524 52.556C73.1284 52.212 72.9164 51.76 72.9164 51.2C72.9164 50.64 73.1204 50.192 73.5284 49.856C73.9364 49.512 74.5844 49.34 75.4724 49.34H77.2964V49.112C77.2964 48.616 77.1524 48.236 76.8644 47.972C76.5764 47.708 76.1524 47.576 75.5924 47.576C75.2164 47.576 74.8484 47.64 74.4884 47.768C74.1284 47.888 73.8244 48.052 73.5764 48.26L73.0964 47.396C73.4244 47.132 73.8164 46.932 74.2724 46.796C74.7284 46.652 75.2124 46.58 75.7244 46.58ZM75.4604 52.184C75.9004 52.184 76.2804 52.088 76.6004 51.896C76.9204 51.696 77.1524 51.416 77.2964 51.056V50.168H75.5204C74.5444 50.168 74.0564 50.496 74.0564 51.152C74.0564 51.472 74.1804 51.724 74.4284 51.908C74.6764 52.092 75.0204 52.184 75.4604 52.184ZM86.0911 46.64L83.0071 53.636C82.7351 54.284 82.4151 54.74 82.0471 55.004C81.6871 55.268 81.2511 55.4 80.7391 55.4C80.4271 55.4 80.1231 55.348 79.8271 55.244C79.5391 55.148 79.2991 55.004 79.1071 54.812L79.5991 53.948C79.9271 54.26 80.3071 54.416 80.7391 54.416C81.0191 54.416 81.2511 54.34 81.4351 54.188C81.6271 54.044 81.7991 53.792 81.9511 53.432L82.1551 52.988L79.3471 46.64H80.5471L82.7671 51.728L84.9631 46.64H86.0911ZM92.4769 44.6V53H91.2889V45.644H89.3929V44.6H92.4769ZM97.6449 49.208H100.873V50.204H97.6449V49.208ZM108.569 48.128C109.393 48.208 110.021 48.464 110.453 48.896C110.885 49.32 111.101 49.864 111.101 50.528C111.101 51.008 110.981 51.444 110.741 51.836C110.501 52.22 110.141 52.528 109.661 52.76C109.189 52.984 108.609 53.096 107.921 53.096C107.321 53.096 106.745 53.008 106.193 52.832C105.641 52.648 105.189 52.396 104.837 52.076L105.389 51.128C105.677 51.4 106.045 51.62 106.493 51.788C106.941 51.948 107.417 52.028 107.921 52.028C108.545 52.028 109.029 51.896 109.373 51.632C109.725 51.368 109.901 51.004 109.901 50.54C109.901 50.076 109.729 49.716 109.385 49.46C109.041 49.204 108.521 49.076 107.825 49.076H107.153V48.236L109.265 45.644H105.221V44.6H110.765V45.416L108.569 48.128ZM113.025 51.428C113.249 51.428 113.433 51.508 113.577 51.668C113.729 51.82 113.805 52.012 113.805 52.244C113.805 52.364 113.789 52.48 113.757 52.592C113.733 52.704 113.681 52.876 113.601 53.108L113.037 54.776H112.281L112.725 52.988C112.573 52.932 112.449 52.84 112.353 52.712C112.265 52.576 112.221 52.42 112.221 52.244C112.221 52.004 112.297 51.808 112.449 51.656C112.601 51.504 112.793 51.428 113.025 51.428ZM126.07 44.6V53H125.086L120.046 46.736V53H118.846V44.6H119.83L124.87 50.864V44.6H126.07ZM134.164 49.856C134.164 49.944 134.156 50.06 134.14 50.204H128.98C129.052 50.764 129.296 51.216 129.712 51.56C130.136 51.896 130.66 52.064 131.284 52.064C132.044 52.064 132.656 51.808 133.12 51.296L133.756 52.04C133.468 52.376 133.108 52.632 132.676 52.808C132.252 52.984 131.776 53.072 131.248 53.072C130.576 53.072 129.98 52.936 129.46 52.664C128.94 52.384 128.536 51.996 128.248 51.5C127.968 51.004 127.828 50.444 127.828 49.82C127.828 49.204 127.964 48.648 128.236 48.152C128.516 47.656 128.896 47.272 129.376 47C129.864 46.72 130.412 46.58 131.02 46.58C131.628 46.58 132.168 46.72 132.64 47C133.12 47.272 133.492 47.656 133.756 48.152C134.028 48.648 134.164 49.216 134.164 49.856ZM131.02 47.552C130.468 47.552 130.004 47.72 129.628 48.056C129.26 48.392 129.044 48.832 128.98 49.376H133.06C132.996 48.84 132.776 48.404 132.4 48.068C132.032 47.724 131.572 47.552 131.02 47.552ZM145.271 46.64L142.895 53H141.791L139.955 48.176L138.095 53H136.991L134.627 46.64H135.719L137.567 51.704L139.487 46.64H140.459L142.343 51.728L144.239 46.64H145.271ZM153.046 50.096V53H151.858V50.072L148.522 44.6H149.806L152.494 49.028L155.194 44.6H156.382L153.046 50.096ZM159.441 53.072C158.809 53.072 158.241 52.932 157.737 52.652C157.233 52.372 156.837 51.988 156.549 51.5C156.269 51.004 156.129 50.444 156.129 49.82C156.129 49.196 156.269 48.64 156.549 48.152C156.837 47.656 157.233 47.272 157.737 47C158.241 46.72 158.809 46.58 159.441 46.58C160.073 46.58 160.637 46.72 161.133 47C161.637 47.272 162.029 47.656 162.309 48.152C162.597 48.64 162.741 49.196 162.741 49.82C162.741 50.444 162.597 51.004 162.309 51.5C162.029 51.988 161.637 52.372 161.133 52.652C160.637 52.932 160.073 53.072 159.441 53.072ZM159.441 52.064C159.849 52.064 160.213 51.972 160.533 51.788C160.861 51.596 161.117 51.332 161.301 50.996C161.485 50.652 161.577 50.26 161.577 49.82C161.577 49.38 161.485 48.992 161.301 48.656C161.117 48.312 160.861 48.048 160.533 47.864C160.213 47.68 159.849 47.588 159.441 47.588C159.033 47.588 158.665 47.68 158.337 47.864C158.017 48.048 157.761 48.312 157.569 48.656C157.385 48.992 157.293 49.38 157.293 49.82C157.293 50.26 157.385 50.652 157.569 50.996C157.761 51.332 158.017 51.596 158.337 51.788C158.665 51.972 159.033 52.064 159.441 52.064ZM165.438 47.708C165.638 47.34 165.934 47.06 166.326 46.868C166.718 46.676 167.194 46.58 167.754 46.58V47.696C167.69 47.688 167.602 47.684 167.49 47.684C166.866 47.684 166.374 47.872 166.014 48.248C165.662 48.616 165.486 49.144 165.486 49.832V53H164.334V46.64H165.438V47.708ZM171.646 50.036L170.326 51.26V53H169.174V44.096H170.326V49.808L173.794 46.64H175.186L172.51 49.268L175.45 53H174.034L171.646 50.036ZM176.974 51.428C177.198 51.428 177.382 51.508 177.526 51.668C177.678 51.82 177.754 52.012 177.754 52.244C177.754 52.364 177.738 52.48 177.706 52.592C177.682 52.704 177.63 52.876 177.55 53.108L176.986 54.776H176.23L176.674 52.988C176.522 52.932 176.398 52.84 176.302 52.712C176.214 52.576 176.17 52.42 176.17 52.244C176.17 52.004 176.246 51.808 176.398 51.656C176.55 51.504 176.742 51.428 176.974 51.428ZM191.634 53L189.822 50.42C189.598 50.436 189.422 50.444 189.294 50.444H187.218V53H186.018V44.6H189.294C190.382 44.6 191.238 44.86 191.862 45.38C192.486 45.9 192.798 46.616 192.798 47.528C192.798 48.176 192.638 48.728 192.318 49.184C191.998 49.64 191.542 49.972 190.95 50.18L192.942 53H191.634ZM189.258 49.424C190.018 49.424 190.598 49.26 190.998 48.932C191.398 48.604 191.598 48.136 191.598 47.528C191.598 46.92 191.398 46.456 190.998 46.136C190.598 45.808 190.018 45.644 189.258 45.644H187.218V49.424H189.258ZM197.293 53.072C196.661 53.072 196.093 52.932 195.589 52.652C195.085 52.372 194.689 51.988 194.401 51.5C194.121 51.004 193.981 50.444 193.981 49.82C193.981 49.196 194.121 48.64 194.401 48.152C194.689 47.656 195.085 47.272 195.589 47C196.093 46.72 196.661 46.58 197.293 46.58C197.925 46.58 198.489 46.72 198.985 47C199.489 47.272 199.881 47.656 200.161 48.152C200.449 48.64 200.593 49.196 200.593 49.82C200.593 50.444 200.449 51.004 200.161 51.5C199.881 51.988 199.489 52.372 198.985 52.652C198.489 52.932 197.925 53.072 197.293 53.072ZM197.293 52.064C197.701 52.064 198.065 51.972 198.385 51.788C198.713 51.596 198.969 51.332 199.153 50.996C199.337 50.652 199.429 50.26 199.429 49.82C199.429 49.38 199.337 48.992 199.153 48.656C198.969 48.312 198.713 48.048 198.385 47.864C198.065 47.68 197.701 47.588 197.293 47.588C196.885 47.588 196.517 47.68 196.189 47.864C195.869 48.048 195.613 48.312 195.421 48.656C195.237 48.992 195.145 49.38 195.145 49.82C195.145 50.26 195.237 50.652 195.421 50.996C195.613 51.332 195.869 51.596 196.189 51.788C196.517 51.972 196.885 52.064 197.293 52.064ZM204.958 53.072C204.31 53.072 203.73 52.932 203.218 52.652C202.714 52.372 202.318 51.988 202.03 51.5C201.742 51.004 201.598 50.444 201.598 49.82C201.598 49.196 201.742 48.64 202.03 48.152C202.318 47.656 202.714 47.272 203.218 47C203.73 46.72 204.31 46.58 204.958 46.58C205.534 46.58 206.046 46.696 206.494 46.928C206.95 47.16 207.302 47.496 207.55 47.936L206.674 48.5C206.474 48.196 206.226 47.968 205.93 47.816C205.634 47.664 205.306 47.588 204.946 47.588C204.53 47.588 204.154 47.68 203.818 47.864C203.49 48.048 203.23 48.312 203.038 48.656C202.854 48.992 202.762 49.38 202.762 49.82C202.762 50.268 202.854 50.664 203.038 51.008C203.23 51.344 203.49 51.604 203.818 51.788C204.154 51.972 204.53 52.064 204.946 52.064C205.306 52.064 205.634 51.988 205.93 51.836C206.226 51.684 206.474 51.456 206.674 51.152L207.55 51.704C207.302 52.144 206.95 52.484 206.494 52.724C206.046 52.956 205.534 53.072 204.958 53.072ZM211.431 50.036L210.111 51.26V53H208.959V44.096H210.111V49.808L213.579 46.64H214.971L212.295 49.268L215.235 53H213.819L211.431 50.036ZM221.832 49.856C221.832 49.944 221.824 50.06 221.808 50.204H216.648C216.72 50.764 216.964 51.216 217.38 51.56C217.804 51.896 218.328 52.064 218.952 52.064C219.712 52.064 220.324 51.808 220.788 51.296L221.424 52.04C221.136 52.376 220.776 52.632 220.344 52.808C219.92 52.984 219.444 53.072 218.916 53.072C218.244 53.072 217.648 52.936 217.128 52.664C216.608 52.384 216.204 51.996 215.916 51.5C215.636 51.004 215.496 50.444 215.496 49.82C215.496 49.204 215.632 48.648 215.904 48.152C216.184 47.656 216.564 47.272 217.044 47C217.532 46.72 218.08 46.58 218.688 46.58C219.296 46.58 219.836 46.72 220.308 47C220.788 47.272 221.16 47.656 221.424 48.152C221.696 48.648 221.832 49.216 221.832 49.856ZM218.688 47.552C218.136 47.552 217.672 47.72 217.296 48.056C216.928 48.392 216.712 48.832 216.648 49.376H220.728C220.664 48.84 220.444 48.404 220.068 48.068C219.7 47.724 219.24 47.552 218.688 47.552ZM225.76 44.972C225.072 44.972 224.728 45.344 224.728 46.088V46.64H226.576V47.588H224.752V53H223.6V47.588H222.52V46.64H223.6V46.076C223.6 45.444 223.784 44.944 224.152 44.576C224.52 44.208 225.036 44.024 225.7 44.024C225.956 44.024 226.196 44.056 226.42 44.12C226.644 44.184 226.836 44.276 226.996 44.396L226.648 45.272C226.384 45.072 226.088 44.972 225.76 44.972ZM233.317 49.856C233.317 49.944 233.309 50.06 233.293 50.204H228.133C228.205 50.764 228.449 51.216 228.865 51.56C229.289 51.896 229.813 52.064 230.437 52.064C231.197 52.064 231.809 51.808 232.273 51.296L232.909 52.04C232.621 52.376 232.261 52.632 231.829 52.808C231.405 52.984 230.929 53.072 230.401 53.072C229.729 53.072 229.133 52.936 228.613 52.664C228.093 52.384 227.689 51.996 227.401 51.5C227.121 51.004 226.981 50.444 226.981 49.82C226.981 49.204 227.117 48.648 227.389 48.152C227.669 47.656 228.049 47.272 228.529 47C229.017 46.72 229.565 46.58 230.173 46.58C230.781 46.58 231.321 46.72 231.793 47C232.273 47.272 232.645 47.656 232.909 48.152C233.181 48.648 233.317 49.216 233.317 49.856ZM230.173 47.552C229.621 47.552 229.157 47.72 228.781 48.056C228.413 48.392 228.197 48.832 228.133 49.376H232.213C232.149 48.84 231.929 48.404 231.553 48.068C231.185 47.724 230.725 47.552 230.173 47.552ZM234.916 44.096H236.068V53H234.916V44.096ZM238.268 44.096H239.42V53H238.268V44.096ZM247.367 49.856C247.367 49.944 247.359 50.06 247.343 50.204H242.183C242.255 50.764 242.499 51.216 242.915 51.56C243.339 51.896 243.863 52.064 244.487 52.064C245.247 52.064 245.859 51.808 246.323 51.296L246.959 52.04C246.671 52.376 246.311 52.632 245.879 52.808C245.455 52.984 244.979 53.072 244.451 53.072C243.779 53.072 243.183 52.936 242.663 52.664C242.143 52.384 241.739 51.996 241.451 51.5C241.171 51.004 241.031 50.444 241.031 49.82C241.031 49.204 241.167 48.648 241.439 48.152C241.719 47.656 242.099 47.272 242.579 47C243.067 46.72 243.615 46.58 244.223 46.58C244.831 46.58 245.371 46.72 245.843 47C246.323 47.272 246.695 47.656 246.959 48.152C247.231 48.648 247.367 49.216 247.367 49.856ZM244.223 47.552C243.671 47.552 243.207 47.72 242.831 48.056C242.463 48.392 242.247 48.832 242.183 49.376H246.263C246.199 48.84 245.979 48.404 245.603 48.068C245.235 47.724 244.775 47.552 244.223 47.552ZM250.071 47.708C250.271 47.34 250.567 47.06 250.959 46.868C251.351 46.676 251.827 46.58 252.387 46.58V47.696C252.323 47.688 252.235 47.684 252.123 47.684C251.499 47.684 251.007 47.872 250.647 48.248C250.295 48.616 250.119 49.144 250.119 49.832V53H248.967V46.64H250.071V47.708ZM260.556 44.6C261.644 44.6 262.5 44.86 263.124 45.38C263.748 45.9 264.06 46.616 264.06 47.528C264.06 48.44 263.748 49.156 263.124 49.676C262.5 50.196 261.644 50.456 260.556 50.456H258.48V53H257.28V44.6H260.556ZM260.52 49.412C261.28 49.412 261.86 49.252 262.26 48.932C262.66 48.604 262.86 48.136 262.86 47.528C262.86 46.92 262.66 46.456 262.26 46.136C261.86 45.808 261.28 45.644 260.52 45.644H258.48V49.412H260.52ZM265.772 44.096H266.924V53H265.772V44.096ZM271.439 46.58C272.319 46.58 272.991 46.796 273.455 47.228C273.927 47.66 274.163 48.304 274.163 49.16V53H273.071V52.16C272.879 52.456 272.603 52.684 272.243 52.844C271.891 52.996 271.471 53.072 270.983 53.072C270.271 53.072 269.699 52.9 269.267 52.556C268.843 52.212 268.631 51.76 268.631 51.2C268.631 50.64 268.835 50.192 269.243 49.856C269.651 49.512 270.299 49.34 271.187 49.34H273.011V49.112C273.011 48.616 272.867 48.236 272.579 47.972C272.291 47.708 271.867 47.576 271.307 47.576C270.931 47.576 270.563 47.64 270.203 47.768C269.843 47.888 269.539 48.052 269.291 48.26L268.811 47.396C269.139 47.132 269.531 46.932 269.987 46.796C270.443 46.652 270.927 46.58 271.439 46.58ZM271.175 52.184C271.615 52.184 271.995 52.088 272.315 51.896C272.635 51.696 272.867 51.416 273.011 51.056V50.168H271.235C270.259 50.168 269.771 50.496 269.771 51.152C269.771 51.472 269.895 51.724 270.143 51.908C270.391 52.092 270.735 52.184 271.175 52.184ZM281.011 52.052V53H275.683V52.256L279.439 47.588H275.755V46.64H280.915V47.396L277.159 52.052H281.011ZM284.869 46.58C285.749 46.58 286.421 46.796 286.885 47.228C287.357 47.66 287.593 48.304 287.593 49.16V53H286.501V52.16C286.309 52.456 286.033 52.684 285.673 52.844C285.321 52.996 284.901 53.072 284.413 53.072C283.701 53.072 283.129 52.9 282.697 52.556C282.273 52.212 282.061 51.76 282.061 51.2C282.061 50.64 282.265 50.192 282.673 49.856C283.081 49.512 283.729 49.34 284.617 49.34H286.441V49.112C286.441 48.616 286.297 48.236 286.009 47.972C285.721 47.708 285.297 47.576 284.737 47.576C284.361 47.576 283.993 47.64 283.633 47.768C283.273 47.888 282.969 48.052 282.721 48.26L282.241 47.396C282.569 47.132 282.961 46.932 283.417 46.796C283.873 46.652 284.357 46.58 284.869 46.58ZM284.605 52.184C285.045 52.184 285.425 52.088 285.745 51.896C286.065 51.696 286.297 51.416 286.441 51.056V50.168H284.665C283.689 50.168 283.201 50.496 283.201 51.152C283.201 51.472 283.325 51.724 283.573 51.908C283.821 52.092 284.165 52.184 284.605 52.184ZM290.013 51.428C290.237 51.428 290.421 51.508 290.565 51.668C290.717 51.82 290.793 52.012 290.793 52.244C290.793 52.364 290.777 52.48 290.745 52.592C290.721 52.704 290.669 52.876 290.589 53.108L290.025 54.776H289.269L289.713 52.988C289.561 52.932 289.437 52.84 289.341 52.712C289.253 52.576 289.209 52.42 289.209 52.244C289.209 52.004 289.285 51.808 289.437 51.656C289.589 51.504 289.781 51.428 290.013 51.428ZM29.016 71.096C28.176 71.096 27.416 70.912 26.736 70.544C26.064 70.168 25.536 69.656 25.152 69.008C24.768 68.352 24.576 67.616 24.576 66.8C24.576 65.984 24.768 65.252 25.152 64.604C25.536 63.948 26.068 63.436 26.748 63.068C27.428 62.692 28.188 62.504 29.028 62.504C29.684 62.504 30.284 62.616 30.828 62.84C31.372 63.056 31.836 63.38 32.22 63.812L31.44 64.568C30.808 63.904 30.02 63.572 29.076 63.572C28.452 63.572 27.888 63.712 27.384 63.992C26.88 64.272 26.484 64.66 26.196 65.156C25.916 65.644 25.776 66.192 25.776 66.8C25.776 67.408 25.916 67.96 26.196 68.456C26.484 68.944 26.88 69.328 27.384 69.608C27.888 69.888 28.452 70.028 29.076 70.028C30.012 70.028 30.8 69.692 31.44 69.02L32.22 69.776C31.836 70.208 31.368 70.536 30.816 70.76C30.272 70.984 29.672 71.096 29.016 71.096ZM36.2183 71.072C35.5863 71.072 35.0183 70.932 34.5143 70.652C34.0103 70.372 33.6143 69.988 33.3263 69.5C33.0463 69.004 32.9063 68.444 32.9063 67.82C32.9063 67.196 33.0463 66.64 33.3263 66.152C33.6143 65.656 34.0103 65.272 34.5143 65C35.0183 64.72 35.5863 64.58 36.2183 64.58C36.8503 64.58 37.4143 64.72 37.9103 65C38.4143 65.272 38.8063 65.656 39.0863 66.152C39.3743 66.64 39.5183 67.196 39.5183 67.82C39.5183 68.444 39.3743 69.004 39.0863 69.5C38.8063 69.988 38.4143 70.372 37.9103 70.652C37.4143 70.932 36.8503 71.072 36.2183 71.072ZM36.2183 70.064C36.6263 70.064 36.9903 69.972 37.3103 69.788C37.6383 69.596 37.8943 69.332 38.0783 68.996C38.2623 68.652 38.3543 68.26 38.3543 67.82C38.3543 67.38 38.2623 66.992 38.0783 66.656C37.8943 66.312 37.6383 66.048 37.3103 65.864C36.9903 65.68 36.6263 65.588 36.2183 65.588C35.8103 65.588 35.4423 65.68 35.1143 65.864C34.7943 66.048 34.5383 66.312 34.3463 66.656C34.1623 66.992 34.0703 67.38 34.0703 67.82C34.0703 68.26 34.1623 68.652 34.3463 68.996C34.5383 69.332 34.7943 69.596 35.1143 69.788C35.4423 69.972 35.8103 70.064 36.2183 70.064ZM44.5075 64.58C45.3155 64.58 45.9555 64.816 46.4275 65.288C46.9075 65.752 47.1475 66.436 47.1475 67.34V71H45.9955V67.472C45.9955 66.856 45.8475 66.392 45.5515 66.08C45.2555 65.768 44.8315 65.612 44.2795 65.612C43.6555 65.612 43.1635 65.796 42.8035 66.164C42.4435 66.524 42.2635 67.044 42.2635 67.724V71H41.1115V64.64H42.2155V65.6C42.4475 65.272 42.7595 65.02 43.1515 64.844C43.5515 64.668 44.0035 64.58 44.5075 64.58ZM54.7903 64.64L52.0063 71H50.8303L48.0463 64.64H49.2463L51.4303 69.74L53.6623 64.64H54.7903ZM61.4377 67.856C61.4377 67.944 61.4297 68.06 61.4137 68.204H56.2537C56.3257 68.764 56.5697 69.216 56.9857 69.56C57.4097 69.896 57.9337 70.064 58.5577 70.064C59.3177 70.064 59.9297 69.808 60.3937 69.296L61.0297 70.04C60.7417 70.376 60.3817 70.632 59.9497 70.808C59.5257 70.984 59.0497 71.072 58.5217 71.072C57.8497 71.072 57.2537 70.936 56.7337 70.664C56.2137 70.384 55.8097 69.996 55.5217 69.5C55.2417 69.004 55.1017 68.444 55.1017 67.82C55.1017 67.204 55.2377 66.648 55.5097 66.152C55.7897 65.656 56.1697 65.272 56.6497 65C57.1377 64.72 57.6857 64.58 58.2937 64.58C58.9017 64.58 59.4417 64.72 59.9137 65C60.3937 65.272 60.7657 65.656 61.0297 66.152C61.3017 66.648 61.4377 67.216 61.4377 67.856ZM58.2937 65.552C57.7417 65.552 57.2777 65.72 56.9017 66.056C56.5337 66.392 56.3177 66.832 56.2537 67.376H60.3337C60.2697 66.84 60.0497 66.404 59.6737 66.068C59.3057 65.724 58.8457 65.552 58.2937 65.552ZM66.4333 64.58C67.2413 64.58 67.8813 64.816 68.3533 65.288C68.8333 65.752 69.0733 66.436 69.0733 67.34V71H67.9213V67.472C67.9213 66.856 67.7733 66.392 67.4773 66.08C67.1813 65.768 66.7573 65.612 66.2053 65.612C65.5813 65.612 65.0893 65.796 64.7293 66.164C64.3693 66.524 64.1893 67.044 64.1893 67.724V71H63.0373V64.64H64.1413V65.6C64.3733 65.272 64.6853 65.02 65.0773 64.844C65.4773 64.668 65.9293 64.58 66.4333 64.58ZM76.9884 67.856C76.9884 67.944 76.9804 68.06 76.9644 68.204H71.8044C71.8764 68.764 72.1204 69.216 72.5364 69.56C72.9604 69.896 73.4844 70.064 74.1084 70.064C74.8684 70.064 75.4804 69.808 75.9444 69.296L76.5804 70.04C76.2924 70.376 75.9324 70.632 75.5004 70.808C75.0764 70.984 74.6004 71.072 74.0724 71.072C73.4004 71.072 72.8044 70.936 72.2844 70.664C71.7644 70.384 71.3604 69.996 71.0724 69.5C70.7924 69.004 70.6524 68.444 70.6524 67.82C70.6524 67.204 70.7884 66.648 71.0604 66.152C71.3404 65.656 71.7204 65.272 72.2004 65C72.6884 64.72 73.2364 64.58 73.8444 64.58C74.4524 64.58 74.9924 64.72 75.4644 65C75.9444 65.272 76.3164 65.656 76.5804 66.152C76.8524 66.648 76.9884 67.216 76.9884 67.856ZM73.8444 65.552C73.2924 65.552 72.8284 65.72 72.4524 66.056C72.0844 66.392 71.8684 66.832 71.8044 67.376H75.8844C75.8204 66.84 75.6004 66.404 75.2244 66.068C74.8564 65.724 74.3964 65.552 73.8444 65.552ZM78.8761 69.428C79.1001 69.428 79.2841 69.508 79.4281 69.668C79.5801 69.82 79.6561 70.012 79.6561 70.244C79.6561 70.364 79.6401 70.48 79.6081 70.592C79.5841 70.704 79.5321 70.876 79.4521 71.108L78.8881 72.776H78.1321L78.5761 70.988C78.4241 70.932 78.3001 70.84 78.2041 70.712C78.1161 70.576 78.0721 70.42 78.0721 70.244C78.0721 70.004 78.1481 69.808 78.3001 69.656C78.4521 69.504 78.6441 69.428 78.8761 69.428ZM86.6175 62.6V71H85.4295V63.644H83.5335V62.6H86.6175ZM91.8869 71.096C91.2229 71.096 90.6309 70.928 90.1109 70.592C89.5989 70.248 89.1949 69.752 88.8989 69.104C88.6029 68.456 88.4549 67.688 88.4549 66.8C88.4549 65.912 88.6029 65.144 88.8989 64.496C89.1949 63.848 89.5989 63.356 90.1109 63.02C90.6309 62.676 91.2229 62.504 91.8869 62.504C92.5429 62.504 93.1269 62.676 93.6389 63.02C94.1589 63.356 94.5669 63.848 94.8629 64.496C95.1589 65.144 95.3069 65.912 95.3069 66.8C95.3069 67.688 95.1589 68.456 94.8629 69.104C94.5669 69.752 94.1589 70.248 93.6389 70.592C93.1269 70.928 92.5429 71.096 91.8869 71.096ZM91.8869 70.028C92.5589 70.028 93.0949 69.752 93.4949 69.2C93.9029 68.648 94.1069 67.848 94.1069 66.8C94.1069 65.752 93.9029 64.952 93.4949 64.4C93.0949 63.848 92.5589 63.572 91.8869 63.572C91.2069 63.572 90.6629 63.848 90.2549 64.4C89.8549 64.952 89.6549 65.752 89.6549 66.8C89.6549 67.848 89.8549 68.648 90.2549 69.2C90.6629 69.752 91.2069 70.028 91.8869 70.028ZM97.2508 66.224C97.0268 66.224 96.8348 66.148 96.6748 65.996C96.5148 65.836 96.4348 65.636 96.4348 65.396C96.4348 65.164 96.5148 64.972 96.6748 64.82C96.8348 64.66 97.0268 64.58 97.2508 64.58C97.4748 64.58 97.6628 64.656 97.8148 64.808C97.9668 64.96 98.0428 65.156 98.0428 65.396C98.0428 65.636 97.9628 65.836 97.8028 65.996C97.6508 66.148 97.4668 66.224 97.2508 66.224ZM97.2508 71.072C97.0268 71.072 96.8348 70.996 96.6748 70.844C96.5148 70.684 96.4348 70.484 96.4348 70.244C96.4348 70.012 96.5148 69.82 96.6748 69.668C96.8348 69.508 97.0268 69.428 97.2508 69.428C97.4748 69.428 97.6628 69.504 97.8148 69.656C97.9668 69.808 98.0428 70.004 98.0428 70.244C98.0428 70.484 97.9628 70.684 97.8028 70.844C97.6508 70.996 97.4668 71.072 97.2508 71.072ZM102.61 71.096C101.946 71.096 101.354 70.928 100.834 70.592C100.322 70.248 99.9176 69.752 99.6216 69.104C99.3256 68.456 99.1776 67.688 99.1776 66.8C99.1776 65.912 99.3256 65.144 99.6216 64.496C99.9176 63.848 100.322 63.356 100.834 63.02C101.354 62.676 101.946 62.504 102.61 62.504C103.266 62.504 103.85 62.676 104.362 63.02C104.882 63.356 105.29 63.848 105.586 64.496C105.882 65.144 106.03 65.912 106.03 66.8C106.03 67.688 105.882 68.456 105.586 69.104C105.29 69.752 104.882 70.248 104.362 70.592C103.85 70.928 103.266 71.096 102.61 71.096ZM102.61 70.028C103.282 70.028 103.818 69.752 104.218 69.2C104.626 68.648 104.83 67.848 104.83 66.8C104.83 65.752 104.626 64.952 104.218 64.4C103.818 63.848 103.282 63.572 102.61 63.572C101.93 63.572 101.386 63.848 100.978 64.4C100.578 64.952 100.378 65.752 100.378 66.8C100.378 67.848 100.578 68.648 100.978 69.2C101.386 69.752 101.93 70.028 102.61 70.028ZM110.613 71.096C109.949 71.096 109.357 70.928 108.837 70.592C108.325 70.248 107.921 69.752 107.625 69.104C107.329 68.456 107.181 67.688 107.181 66.8C107.181 65.912 107.329 65.144 107.625 64.496C107.921 63.848 108.325 63.356 108.837 63.02C109.357 62.676 109.949 62.504 110.613 62.504C111.269 62.504 111.853 62.676 112.365 63.02C112.885 63.356 113.293 63.848 113.589 64.496C113.885 65.144 114.033 65.912 114.033 66.8C114.033 67.688 113.885 68.456 113.589 69.104C113.293 69.752 112.885 70.248 112.365 70.592C111.853 70.928 111.269 71.096 110.613 71.096ZM110.613 70.028C111.285 70.028 111.821 69.752 112.221 69.2C112.629 68.648 112.833 67.848 112.833 66.8C112.833 65.752 112.629 64.952 112.221 64.4C111.821 63.848 111.285 63.572 110.613 63.572C109.933 63.572 109.389 63.848 108.981 64.4C108.581 64.952 108.381 65.752 108.381 66.8C108.381 67.848 108.581 68.648 108.981 69.2C109.389 69.752 109.933 70.028 110.613 70.028ZM121.128 68.9H116.664L115.74 71H114.504L118.308 62.6H119.496L123.312 71H122.052L121.128 68.9ZM120.708 67.94L118.896 63.824L117.084 67.94H120.708ZM132.353 71L132.341 64.88L129.305 69.98H128.753L125.717 64.916V71H124.565V62.6H125.549L129.053 68.504L132.509 62.6H133.493L133.505 71H132.353ZM138.672 67.208H141.9V68.204H138.672V67.208ZM148.985 62.6V71H147.797V63.644H145.901V62.6H148.985ZM158.13 68.936H156.534V71H155.37V68.936H150.702V68.096L154.998 62.6H156.294L152.178 67.904H155.406V66.08H156.534V67.904H158.13V68.936ZM159.723 66.224C159.499 66.224 159.307 66.148 159.147 65.996C158.987 65.836 158.907 65.636 158.907 65.396C158.907 65.164 158.987 64.972 159.147 64.82C159.307 64.66 159.499 64.58 159.723 64.58C159.947 64.58 160.135 64.656 160.287 64.808C160.439 64.96 160.515 65.156 160.515 65.396C160.515 65.636 160.435 65.836 160.275 65.996C160.123 66.148 159.939 66.224 159.723 66.224ZM159.723 71.072C159.499 71.072 159.307 70.996 159.147 70.844C158.987 70.684 158.907 70.484 158.907 70.244C158.907 70.012 158.987 69.82 159.147 69.668C159.307 69.508 159.499 69.428 159.723 69.428C159.947 69.428 160.135 69.504 160.287 69.656C160.439 69.808 160.515 70.004 160.515 70.244C160.515 70.484 160.435 70.684 160.275 70.844C160.123 70.996 159.939 71.072 159.723 71.072ZM165.082 71.096C164.418 71.096 163.826 70.928 163.306 70.592C162.794 70.248 162.39 69.752 162.094 69.104C161.798 68.456 161.65 67.688 161.65 66.8C161.65 65.912 161.798 65.144 162.094 64.496C162.39 63.848 162.794 63.356 163.306 63.02C163.826 62.676 164.418 62.504 165.082 62.504C165.738 62.504 166.322 62.676 166.834 63.02C167.354 63.356 167.762 63.848 168.058 64.496C168.354 65.144 168.502 65.912 168.502 66.8C168.502 67.688 168.354 68.456 168.058 69.104C167.762 69.752 167.354 70.248 166.834 70.592C166.322 70.928 165.738 71.096 165.082 71.096ZM165.082 70.028C165.754 70.028 166.29 69.752 166.69 69.2C167.098 68.648 167.302 67.848 167.302 66.8C167.302 65.752 167.098 64.952 166.69 64.4C166.29 63.848 165.754 63.572 165.082 63.572C164.402 63.572 163.858 63.848 163.45 64.4C163.05 64.952 162.85 65.752 162.85 66.8C162.85 67.848 163.05 68.648 163.45 69.2C163.858 69.752 164.402 70.028 165.082 70.028ZM173.086 71.096C172.422 71.096 171.83 70.928 171.31 70.592C170.798 70.248 170.394 69.752 170.098 69.104C169.802 68.456 169.654 67.688 169.654 66.8C169.654 65.912 169.802 65.144 170.098 64.496C170.394 63.848 170.798 63.356 171.31 63.02C171.83 62.676 172.422 62.504 173.086 62.504C173.742 62.504 174.326 62.676 174.838 63.02C175.358 63.356 175.766 63.848 176.062 64.496C176.358 65.144 176.506 65.912 176.506 66.8C176.506 67.688 176.358 68.456 176.062 69.104C175.766 69.752 175.358 70.248 174.838 70.592C174.326 70.928 173.742 71.096 173.086 71.096ZM173.086 70.028C173.758 70.028 174.294 69.752 174.694 69.2C175.102 68.648 175.306 67.848 175.306 66.8C175.306 65.752 175.102 64.952 174.694 64.4C174.294 63.848 173.758 63.572 173.086 63.572C172.406 63.572 171.862 63.848 171.454 64.4C171.054 64.952 170.854 65.752 170.854 66.8C170.854 67.848 171.054 68.648 171.454 69.2C171.862 69.752 172.406 70.028 173.086 70.028ZM181.618 62.6C182.706 62.6 183.562 62.86 184.186 63.38C184.81 63.9 185.122 64.616 185.122 65.528C185.122 66.44 184.81 67.156 184.186 67.676C183.562 68.196 182.706 68.456 181.618 68.456H179.542V71H178.342V62.6H181.618ZM181.582 67.412C182.342 67.412 182.922 67.252 183.322 66.932C183.722 66.604 183.922 66.136 183.922 65.528C183.922 64.92 183.722 64.456 183.322 64.136C182.922 63.808 182.342 63.644 181.582 63.644H179.542V67.412H181.582ZM194.673 71L194.661 64.88L191.625 69.98H191.073L188.037 64.916V71H186.885V62.6H187.869L191.373 68.504L194.829 62.6H195.813L195.825 71H194.673ZM202.877 73.328C202.421 72.592 202.069 71.748 201.821 70.796C201.573 69.836 201.449 68.808 201.449 67.712C201.449 66.616 201.573 65.588 201.821 64.628C202.069 63.66 202.421 62.816 202.877 62.096H203.969C203.489 62.936 203.137 63.816 202.913 64.736C202.689 65.656 202.577 66.648 202.577 67.712C202.577 68.776 202.689 69.768 202.913 70.688C203.137 71.608 203.489 72.488 203.969 73.328H202.877ZM211.432 66.752H212.584V70.028C212.168 70.372 211.684 70.636 211.132 70.82C210.58 71.004 210.004 71.096 209.404 71.096C208.556 71.096 207.792 70.912 207.112 70.544C206.432 70.168 205.896 69.656 205.504 69.008C205.12 68.352 204.928 67.616 204.928 66.8C204.928 65.984 205.12 65.248 205.504 64.592C205.896 63.936 206.432 63.424 207.112 63.056C207.8 62.688 208.572 62.504 209.428 62.504C210.1 62.504 210.708 62.616 211.252 62.84C211.804 63.056 212.272 63.376 212.656 63.8L211.912 64.544C211.24 63.896 210.428 63.572 209.476 63.572C208.836 63.572 208.26 63.712 207.748 63.992C207.244 64.264 206.848 64.648 206.56 65.144C206.272 65.632 206.128 66.184 206.128 66.8C206.128 67.408 206.272 67.96 206.56 68.456C206.848 68.944 207.244 69.328 207.748 69.608C208.26 69.888 208.832 70.028 209.464 70.028C210.216 70.028 210.872 69.848 211.432 69.488V66.752ZM222.669 71L222.657 64.88L219.621 69.98H219.069L216.033 64.916V71H214.881V62.6H215.865L219.369 68.504L222.825 62.6H223.809L223.821 71H222.669ZM228.01 63.644H225.13V62.6H232.078V63.644H229.198V71H228.01V63.644ZM232.411 67.208H235.639V68.204H232.411V67.208ZM244.286 68.936H242.69V71H241.526V68.936H236.858V68.096L241.154 62.6H242.45L238.334 67.904H241.562V66.08H242.69V67.904H244.286V68.936ZM244.814 73.328C245.294 72.488 245.646 71.608 245.87 70.688C246.102 69.768 246.218 68.776 246.218 67.712C246.218 66.648 246.102 65.656 245.87 64.736C245.646 63.816 245.294 62.936 244.814 62.096H245.906C246.37 62.816 246.726 63.656 246.974 64.616C247.222 65.576 247.346 66.608 247.346 67.712C247.346 68.808 247.222 69.836 246.974 70.796C246.726 71.756 246.37 72.6 245.906 73.328H244.814Z" fill="#475467"/>
<path d="M27.708 97.096C27.076 97.096 26.464 97 25.872 96.808C25.288 96.608 24.828 96.352 24.492 96.04L24.936 95.104C25.256 95.392 25.664 95.628 26.16 95.812C26.664 95.988 27.18 96.076 27.708 96.076C28.404 96.076 28.924 95.96 29.268 95.728C29.612 95.488 29.784 95.172 29.784 94.78C29.784 94.492 29.688 94.26 29.496 94.084C29.312 93.9 29.08 93.76 28.8 93.664C28.528 93.568 28.14 93.46 27.636 93.34C27.004 93.188 26.492 93.036 26.1 92.884C25.716 92.732 25.384 92.5 25.104 92.188C24.832 91.868 24.696 91.44 24.696 90.904C24.696 90.456 24.812 90.052 25.044 89.692C25.284 89.332 25.644 89.044 26.124 88.828C26.604 88.612 27.2 88.504 27.912 88.504C28.408 88.504 28.896 88.568 29.376 88.696C29.856 88.824 30.268 89.008 30.612 89.248L30.216 90.208C29.864 89.984 29.488 89.816 29.088 89.704C28.688 89.584 28.296 89.524 27.912 89.524C27.232 89.524 26.72 89.648 26.376 89.896C26.04 90.144 25.872 90.464 25.872 90.856C25.872 91.144 25.968 91.38 26.16 91.564C26.352 91.74 26.588 91.88 26.868 91.984C27.156 92.08 27.544 92.184 28.032 92.296C28.664 92.448 29.172 92.6 29.556 92.752C29.94 92.904 30.268 93.136 30.54 93.448C30.82 93.76 30.96 94.18 30.96 94.708C30.96 95.148 30.84 95.552 30.6 95.92C30.36 96.28 29.996 96.568 29.508 96.784C29.02 96.992 28.42 97.096 27.708 97.096ZM38.2931 93.856C38.2931 93.944 38.2851 94.06 38.2691 94.204H33.1091C33.1811 94.764 33.4251 95.216 33.8411 95.56C34.2651 95.896 34.7891 96.064 35.4131 96.064C36.1731 96.064 36.7851 95.808 37.2491 95.296L37.8851 96.04C37.5971 96.376 37.2371 96.632 36.8051 96.808C36.3811 96.984 35.9051 97.072 35.3771 97.072C34.7051 97.072 34.1091 96.936 33.5891 96.664C33.0691 96.384 32.6651 95.996 32.3771 95.5C32.0971 95.004 31.9571 94.444 31.9571 93.82C31.9571 93.204 32.0931 92.648 32.3651 92.152C32.6451 91.656 33.0251 91.272 33.5051 91C33.9931 90.72 34.5411 90.58 35.1491 90.58C35.7571 90.58 36.2971 90.72 36.7691 91C37.2491 91.272 37.6211 91.656 37.8851 92.152C38.1571 92.648 38.2931 93.216 38.2931 93.856ZM35.1491 91.552C34.5971 91.552 34.1331 91.72 33.7571 92.056C33.3891 92.392 33.1731 92.832 33.1091 93.376H37.1891C37.1251 92.84 36.9051 92.404 36.5291 92.068C36.1611 91.724 35.7011 91.552 35.1491 91.552ZM45.6408 93.856C45.6408 93.944 45.6328 94.06 45.6168 94.204H40.4568C40.5288 94.764 40.7728 95.216 41.1888 95.56C41.6128 95.896 42.1368 96.064 42.7608 96.064C43.5208 96.064 44.1328 95.808 44.5968 95.296L45.2328 96.04C44.9448 96.376 44.5848 96.632 44.1528 96.808C43.7288 96.984 43.2528 97.072 42.7248 97.072C42.0528 97.072 41.4568 96.936 40.9368 96.664C40.4168 96.384 40.0128 95.996 39.7248 95.5C39.4448 95.004 39.3048 94.444 39.3048 93.82C39.3048 93.204 39.4408 92.648 39.7128 92.152C39.9928 91.656 40.3728 91.272 40.8528 91C41.3408 90.72 41.8888 90.58 42.4968 90.58C43.1048 90.58 43.6448 90.72 44.1168 91C44.5968 91.272 44.9688 91.656 45.2328 92.152C45.5048 92.648 45.6408 93.216 45.6408 93.856ZM42.4968 91.552C41.9448 91.552 41.4808 91.72 41.1048 92.056C40.7368 92.392 40.5208 92.832 40.4568 93.376H44.5368C44.4728 92.84 44.2528 92.404 43.8768 92.068C43.5088 91.724 43.0488 91.552 42.4968 91.552ZM56.0911 90.64L53.0071 97.636C52.7351 98.284 52.4151 98.74 52.0471 99.004C51.6871 99.268 51.2511 99.4 50.7391 99.4C50.4271 99.4 50.1231 99.348 49.8271 99.244C49.5391 99.148 49.2991 99.004 49.1071 98.812L49.5991 97.948C49.9271 98.26 50.3071 98.416 50.7391 98.416C51.0191 98.416 51.2511 98.34 51.4351 98.188C51.6271 98.044 51.7991 97.792 51.9511 97.432L52.1551 96.988L49.3471 90.64H50.5471L52.7671 95.728L54.9631 90.64H56.0911ZM59.7144 97.072C59.0824 97.072 58.5144 96.932 58.0104 96.652C57.5064 96.372 57.1104 95.988 56.8224 95.5C56.5424 95.004 56.4024 94.444 56.4024 93.82C56.4024 93.196 56.5424 92.64 56.8224 92.152C57.1104 91.656 57.5064 91.272 58.0104 91C58.5144 90.72 59.0824 90.58 59.7144 90.58C60.3464 90.58 60.9104 90.72 61.4064 91C61.9104 91.272 62.3024 91.656 62.5824 92.152C62.8704 92.64 63.0144 93.196 63.0144 93.82C63.0144 94.444 62.8704 95.004 62.5824 95.5C62.3024 95.988 61.9104 96.372 61.4064 96.652C60.9104 96.932 60.3464 97.072 59.7144 97.072ZM59.7144 96.064C60.1224 96.064 60.4864 95.972 60.8064 95.788C61.1344 95.596 61.3904 95.332 61.5744 94.996C61.7584 94.652 61.8504 94.26 61.8504 93.82C61.8504 93.38 61.7584 92.992 61.5744 92.656C61.3904 92.312 61.1344 92.048 60.8064 91.864C60.4864 91.68 60.1224 91.588 59.7144 91.588C59.3064 91.588 58.9384 91.68 58.6104 91.864C58.2904 92.048 58.0344 92.312 57.8424 92.656C57.6584 92.992 57.5664 93.38 57.5664 93.82C57.5664 94.26 57.6584 94.652 57.8424 94.996C58.0344 95.332 58.2904 95.596 58.6104 95.788C58.9384 95.972 59.3064 96.064 59.7144 96.064ZM70.5356 90.64V97H69.4436V96.04C69.2116 96.368 68.9036 96.624 68.5196 96.808C68.1436 96.984 67.7316 97.072 67.2836 97.072C66.4356 97.072 65.7676 96.84 65.2796 96.376C64.7916 95.904 64.5476 95.212 64.5476 94.3V90.64H65.6996V94.168C65.6996 94.784 65.8476 95.252 66.1436 95.572C66.4396 95.884 66.8636 96.04 67.4156 96.04C68.0236 96.04 68.5036 95.856 68.8556 95.488C69.2076 95.12 69.3836 94.6 69.3836 93.928V90.64H70.5356ZM79.5274 96.628C79.3594 96.772 79.1514 96.884 78.9034 96.964C78.6554 97.036 78.3994 97.072 78.1354 97.072C77.4954 97.072 76.9994 96.9 76.6474 96.556C76.2954 96.212 76.1194 95.72 76.1194 95.08V91.588H75.0394V90.64H76.1194V89.248H77.2714V90.64H79.0954V91.588H77.2714V95.032C77.2714 95.376 77.3554 95.64 77.5234 95.824C77.6994 96.008 77.9474 96.1 78.2674 96.1C78.6194 96.1 78.9194 96 79.1674 95.8L79.5274 96.628ZM84.3161 90.58C85.1241 90.58 85.7641 90.816 86.2361 91.288C86.7161 91.752 86.9561 92.436 86.9561 93.34V97H85.8041V93.472C85.8041 92.856 85.6561 92.392 85.3601 92.08C85.0641 91.768 84.6401 91.612 84.0881 91.612C83.4641 91.612 82.9721 91.796 82.6121 92.164C82.2521 92.524 82.0721 93.044 82.0721 93.724V97H80.9201V88.096H82.0721V91.54C82.3121 91.236 82.6241 91 83.0081 90.832C83.4001 90.664 83.8361 90.58 84.3161 90.58ZM94.8713 93.856C94.8713 93.944 94.8633 94.06 94.8473 94.204H89.6873C89.7593 94.764 90.0033 95.216 90.4193 95.56C90.8433 95.896 91.3673 96.064 91.9913 96.064C92.7513 96.064 93.3633 95.808 93.8273 95.296L94.4633 96.04C94.1753 96.376 93.8153 96.632 93.3833 96.808C92.9593 96.984 92.4833 97.072 91.9553 97.072C91.2833 97.072 90.6873 96.936 90.1673 96.664C89.6473 96.384 89.2433 95.996 88.9553 95.5C88.6753 95.004 88.5353 94.444 88.5353 93.82C88.5353 93.204 88.6713 92.648 88.9433 92.152C89.2233 91.656 89.6033 91.272 90.0833 91C90.5713 90.72 91.1193 90.58 91.7273 90.58C92.3353 90.58 92.8753 90.72 93.3473 91C93.8273 91.272 94.1993 91.656 94.4633 92.152C94.7353 92.648 94.8713 93.216 94.8713 93.856ZM91.7273 91.552C91.1753 91.552 90.7113 91.72 90.3353 92.056C89.9673 92.392 89.7513 92.832 89.6873 93.376H93.7673C93.7033 92.84 93.4833 92.404 93.1073 92.068C92.7393 91.724 92.2793 91.552 91.7273 91.552ZM97.5749 91.708C97.7749 91.34 98.0709 91.06 98.4629 90.868C98.8549 90.676 99.3309 90.58 99.8909 90.58V91.696C99.8269 91.688 99.7389 91.684 99.6269 91.684C99.0029 91.684 98.5109 91.872 98.1509 92.248C97.7989 92.616 97.6229 93.144 97.6229 93.832V97H96.4709V90.64H97.5749V91.708ZM107 93.856C107 93.944 106.992 94.06 106.976 94.204H101.816C101.888 94.764 102.132 95.216 102.548 95.56C102.972 95.896 103.496 96.064 104.12 96.064C104.88 96.064 105.492 95.808 105.956 95.296L106.592 96.04C106.304 96.376 105.944 96.632 105.512 96.808C105.088 96.984 104.612 97.072 104.084 97.072C103.412 97.072 102.816 96.936 102.296 96.664C101.776 96.384 101.372 95.996 101.084 95.5C100.804 95.004 100.664 94.444 100.664 93.82C100.664 93.204 100.8 92.648 101.072 92.152C101.352 91.656 101.732 91.272 102.212 91C102.7 90.72 103.248 90.58 103.856 90.58C104.464 90.58 105.004 90.72 105.476 91C105.956 91.272 106.328 91.656 106.592 92.152C106.864 92.648 107 93.216 107 93.856ZM103.856 91.552C103.304 91.552 102.84 91.72 102.464 92.056C102.096 92.392 101.88 92.832 101.816 93.376H105.896C105.832 92.84 105.612 92.404 105.236 92.068C104.868 91.724 104.408 91.552 103.856 91.552ZM108.444 88.6H109.8L109.572 94.348H108.66L108.444 88.6ZM109.128 97.072C108.904 97.072 108.716 97 108.564 96.856C108.412 96.704 108.336 96.52 108.336 96.304C108.336 96.088 108.412 95.908 108.564 95.764C108.716 95.612 108.904 95.536 109.128 95.536C109.352 95.536 109.536 95.612 109.68 95.764C109.824 95.908 109.896 96.088 109.896 96.304C109.896 96.52 109.82 96.704 109.668 96.856C109.524 97 109.344 97.072 109.128 97.072Z" fill="#98A2B3"/>
<g filter="url(#filter0_d_3230_33957)">
<rect x="364" y="43" width="87" height="32" rx="16" fill="#475467"/>
<g clip-path="url(#clip0_3230_33957)">
<path d="M387.209 54.1245C387.351 53.9822 387.52 53.8694 387.706 53.7924C387.892 53.7154 388.091 53.6758 388.292 53.6758C388.494 53.6758 388.693 53.7154 388.879 53.7924C389.064 53.8694 389.233 53.9822 389.376 54.1245C389.518 54.2668 389.631 54.4357 389.708 54.6216C389.785 54.8074 389.824 55.0067 389.824 55.2078C389.824 55.409 389.785 55.6083 389.708 55.7941C389.631 55.98 389.518 56.1489 389.376 56.2912L382.063 63.6037L379.084 64.4162L379.896 61.437L387.209 54.1245Z" stroke="white" stroke-width="2" stroke-linecap="round" stroke-linejoin="round"/>
</g>
<path d="M411.666 62.474V64H404.316V54.2H411.47V55.726H406.136V58.274H410.868V59.772H406.136V62.474H411.666ZM413.695 54.2H417.979C419.024 54.2 419.953 54.4053 420.765 54.816C421.577 55.2173 422.207 55.7913 422.655 56.538C423.103 57.2753 423.327 58.1293 423.327 59.1C423.327 60.0707 423.103 60.9293 422.655 61.676C422.207 62.4133 421.577 62.9873 420.765 63.398C419.953 63.7993 419.024 64 417.979 64H413.695V54.2ZM417.895 62.46C418.614 62.46 419.244 62.3247 419.785 62.054C420.336 61.774 420.756 61.382 421.045 60.878C421.344 60.3647 421.493 59.772 421.493 59.1C421.493 58.428 421.344 57.84 421.045 57.336C420.756 56.8227 420.336 56.4307 419.785 56.16C419.244 55.88 418.614 55.74 417.895 55.74H415.515V62.46H417.895ZM425.261 54.2H427.081V64H425.261V54.2ZM431.72 55.74H428.472V54.2H436.788V55.74H433.54V64H431.72V55.74Z" fill="white"/>
</g>
<rect x="0.5" y="0.5" width="538" height="117" rx="9.5" stroke="#D0D5DD"/>
<defs>
<filter id="filter0_d_3230_33957" x="362" y="42" width="91" height="36" filterUnits="userSpaceOnUse" color-interpolation-filters="sRGB">
<feFlood flood-opacity="0" result="BackgroundImageFix"/>
<feColorMatrix in="SourceAlpha" type="matrix" values="0 0 0 0 0 0 0 0 0 0 0 0 0 0 0 0 0 0 127 0" result="hardAlpha"/>
<feOffset dy="1"/>
<feGaussianBlur stdDeviation="1"/>
<feColorMatrix type="matrix" values="0 0 0 0 0.0627451 0 0 0 0 0.0941176 0 0 0 0 0.156863 0 0 0 0.05 0"/>
<feBlend mode="normal" in2="BackgroundImageFix" result="effect1_dropShadow_3230_33957"/>
<feBlend mode="normal" in="SourceGraphic" in2="effect1_dropShadow_3230_33957" result="shape"/>
</filter>
<clipPath id="clip0_3230_33957">
<rect width="13" height="13" fill="white" transform="translate(378 52.5)"/>
</clipPath>
</defs>
</svg>
