<svg width="539" height="100" viewBox="0 0 539 100" fill="none" xmlns="http://www.w3.org/2000/svg">
<rect x="0.5" y="0.5" width="538" height="99" rx="9.5" fill="#F2F4F7"/>
<path d="M26.982 25.708H31.868V27.248H26.982V25.708ZM27.136 31H25.316V21.2H32.47V22.726H27.136V31ZM38.7127 31.14C37.9474 31.14 37.2427 31.014 36.5987 30.762C35.9547 30.51 35.3947 30.16 34.9187 29.712C34.4427 29.2547 34.074 28.7227 33.8127 28.116C33.5514 27.5 33.4207 26.828 33.4207 26.1C33.4207 25.372 33.5514 24.7047 33.8127 24.098C34.074 23.482 34.4427 22.95 34.9187 22.502C35.3947 22.0447 35.9547 21.69 36.5987 21.438C37.2427 21.186 37.9427 21.06 38.6987 21.06C39.464 21.06 40.164 21.186 40.7987 21.438C41.4427 21.69 42.0027 22.0447 42.4787 22.502C42.9547 22.95 43.3234 23.482 43.5847 24.098C43.846 24.7047 43.9767 25.372 43.9767 26.1C43.9767 26.828 43.846 27.5 43.5847 28.116C43.3234 28.732 42.9547 29.264 42.4787 29.712C42.0027 30.16 41.4427 30.51 40.7987 30.762C40.164 31.014 39.4687 31.14 38.7127 31.14ZM38.6987 29.544C39.1934 29.544 39.6507 29.46 40.0707 29.292C40.4907 29.124 40.8547 28.886 41.1627 28.578C41.4707 28.2607 41.7087 27.8967 41.8767 27.486C42.054 27.066 42.1427 26.604 42.1427 26.1C42.1427 25.596 42.054 25.1387 41.8767 24.728C41.7087 24.308 41.4707 23.944 41.1627 23.636C40.8547 23.3187 40.4907 23.076 40.0707 22.908C39.6507 22.74 39.1934 22.656 38.6987 22.656C38.204 22.656 37.7467 22.74 37.3267 22.908C36.916 23.076 36.552 23.3187 36.2347 23.636C35.9267 23.944 35.684 24.308 35.5067 24.728C35.3387 25.1387 35.2547 25.596 35.2547 26.1C35.2547 26.5947 35.3387 27.052 35.5067 27.472C35.684 27.892 35.9267 28.2607 36.2347 28.578C36.5427 28.886 36.9067 29.124 37.3267 29.292C37.7467 29.46 38.204 29.544 38.6987 29.544ZM45.9058 31V21.2H49.9378C50.8058 21.2 51.5478 21.34 52.1638 21.62C52.7892 21.9 53.2698 22.3013 53.6058 22.824C53.9418 23.3467 54.1098 23.9673 54.1098 24.686C54.1098 25.4047 53.9418 26.0253 53.6058 26.548C53.2698 27.0613 52.7892 27.458 52.1638 27.738C51.5478 28.0087 50.8058 28.144 49.9378 28.144H46.9138L47.7258 27.318V31H45.9058ZM52.3178 31L49.8398 27.444H51.7858L54.2778 31H52.3178ZM47.7258 27.514L46.9138 26.646H49.8538C50.6565 26.646 51.2585 26.4733 51.6598 26.128C52.0705 25.7827 52.2758 25.302 52.2758 24.686C52.2758 24.0607 52.0705 23.58 51.6598 23.244C51.2585 22.908 50.6565 22.74 49.8538 22.74H46.9138L47.7258 21.844V27.514ZM60.3601 31.14C59.0161 31.14 57.9614 30.762 57.1961 30.006C56.4401 29.25 56.0621 28.158 56.0621 26.73V21.2H57.8821V26.66C57.8821 27.668 58.0967 28.4007 58.5261 28.858C58.9647 29.3153 59.5807 29.544 60.3741 29.544C61.1674 29.544 61.7787 29.3153 62.2081 28.858C62.6374 28.4007 62.8521 27.668 62.8521 26.66V21.2H64.6441V26.73C64.6441 28.158 64.2614 29.25 63.4961 30.006C62.7401 30.762 61.6947 31.14 60.3601 31.14ZM67.193 31V21.2H68.691L72.975 28.354H72.191L76.405 21.2H77.903L77.917 31H76.195L76.181 23.902H76.545L72.961 29.88H72.149L68.509 23.902H68.929V31H67.193ZM83.0472 31L87.4572 21.2H89.2492L93.6732 31H91.7692L87.9752 22.166H88.7032L84.9232 31H83.0472ZM85.0772 28.732L85.5672 27.304H90.8592L91.3492 28.732H85.0772ZM94.9195 31V21.2H96.4175L100.702 28.354H99.9175L104.132 21.2H105.63L105.644 31H103.922L103.908 23.902H104.272L100.688 29.88H99.8755L96.2355 23.902H96.6555V31H94.9195ZM106.905 31L111.315 21.2H113.107L117.531 31H115.627L111.833 22.166H112.561L108.781 31H106.905ZM108.935 28.732L109.425 27.304H114.717L115.207 28.732H108.935Z" fill="#101828"/>
<rect x="122" y="19.5" width="55" height="13" rx="6.5" fill="#8098F9"/>
<g clip-path="url(#clip0_3230_33943)">
<path d="M137.667 23.8327H138.167C138.167 23.6454 138.063 23.4738 137.896 23.3881C137.73 23.3024 137.529 23.317 137.377 23.4258L137.667 23.8327ZM135.334 25.4993L135.043 25.0925C134.912 25.1863 134.834 25.3379 134.834 25.4993C134.834 25.6608 134.912 25.8124 135.043 25.9062L135.334 25.4993ZM137.667 27.166L137.377 27.5729C137.529 27.6817 137.73 27.6963 137.896 27.6106C138.063 27.5249 138.167 27.3533 138.167 27.166H137.667ZM137.377 23.4258L135.043 25.0925L135.625 25.9062L137.958 24.2395L137.377 23.4258ZM135.043 25.9062L137.377 27.5729L137.958 26.7591L135.625 25.0925L135.043 25.9062ZM138.167 27.166V23.8327H137.167V27.166H138.167ZM131.001 23.666H134.667V22.666H131.001V23.666ZM134.667 23.666C134.759 23.666 134.834 23.7406 134.834 23.8327H135.834C135.834 23.1884 135.312 22.666 134.667 22.666V23.666ZM134.834 23.8327V27.166H135.834V23.8327H134.834ZM134.834 27.166C134.834 27.2581 134.759 27.3327 134.667 27.3327V28.3327C135.312 28.3327 135.834 27.8103 135.834 27.166H134.834ZM134.667 27.3327H131.001V28.3327H134.667V27.3327ZM131.001 27.3327C130.909 27.3327 130.834 27.2581 130.834 27.166H129.834C129.834 27.8103 130.356 28.3327 131.001 28.3327V27.3327ZM130.834 27.166V23.8327H129.834V27.166H130.834ZM130.834 23.8327C130.834 23.7406 130.909 23.666 131.001 23.666V22.666C130.356 22.666 129.834 23.1884 129.834 23.8327H130.834Z" fill="white"/>
</g>
<path d="M145.38 28.564C144.953 28.564 144.556 28.492 144.188 28.348C143.825 28.204 143.51 28.004 143.244 27.748C142.977 27.4867 142.769 27.1827 142.62 26.836C142.47 26.4893 142.396 26.1107 142.396 25.7C142.396 25.2893 142.47 24.9107 142.62 24.564C142.769 24.2173 142.977 23.916 143.244 23.66C143.51 23.3987 143.825 23.196 144.188 23.052C144.55 22.908 144.948 22.836 145.38 22.836C145.806 22.836 146.198 22.908 146.556 23.052C146.918 23.1907 147.233 23.3907 147.5 23.652C147.772 23.908 147.98 24.2093 148.124 24.556C148.273 24.9027 148.348 25.284 148.348 25.7C148.348 26.116 148.273 26.4973 148.124 26.844C147.98 27.1907 147.772 27.4947 147.5 27.756C147.233 28.012 146.918 28.212 146.556 28.356C146.198 28.4947 145.806 28.564 145.38 28.564ZM145.38 27.852C145.689 27.852 145.974 27.7987 146.236 27.692C146.502 27.5853 146.732 27.436 146.924 27.244C147.121 27.0467 147.273 26.8173 147.38 26.556C147.492 26.2947 147.548 26.0093 147.548 25.7C147.548 25.3907 147.492 25.1053 147.38 24.844C147.273 24.5827 147.121 24.356 146.924 24.164C146.732 23.9667 146.502 23.8147 146.236 23.708C145.974 23.6013 145.689 23.548 145.38 23.548C145.065 23.548 144.774 23.6013 144.508 23.708C144.246 23.8147 144.017 23.9667 143.82 24.164C143.622 24.356 143.468 24.5827 143.356 24.844C143.249 25.1053 143.196 25.3907 143.196 25.7C143.196 26.0093 143.249 26.2947 143.356 26.556C143.468 26.8173 143.622 27.0467 143.82 27.244C144.017 27.436 144.246 27.5853 144.508 27.692C144.774 27.7987 145.065 27.852 145.38 27.852ZM151.722 24.22C152.069 24.22 152.373 24.2867 152.634 24.42C152.901 24.5533 153.109 24.756 153.258 25.028C153.408 25.3 153.482 25.644 153.482 26.06V28.5H152.714V26.148C152.714 25.7373 152.613 25.428 152.41 25.22C152.213 25.012 151.933 24.908 151.57 24.908C151.298 24.908 151.061 24.9613 150.858 25.068C150.656 25.1747 150.498 25.332 150.386 25.54C150.28 25.748 150.226 26.0067 150.226 26.316V28.5H149.458V24.26H150.194V25.404L150.074 25.1C150.213 24.8227 150.426 24.6067 150.714 24.452C151.002 24.2973 151.338 24.22 151.722 24.22ZM154.904 28.5V22.564H155.672V28.5H154.904ZM157.138 28.5V24.26H157.906V28.5H157.138ZM157.522 23.444C157.373 23.444 157.247 23.396 157.146 23.3C157.05 23.204 157.002 23.0867 157.002 22.948C157.002 22.804 157.05 22.684 157.146 22.588C157.247 22.492 157.373 22.444 157.522 22.444C157.671 22.444 157.794 22.492 157.89 22.588C157.991 22.6787 158.042 22.7933 158.042 22.932C158.042 23.076 157.994 23.1987 157.898 23.3C157.802 23.396 157.677 23.444 157.522 23.444ZM161.637 24.22C161.983 24.22 162.287 24.2867 162.549 24.42C162.815 24.5533 163.023 24.756 163.173 25.028C163.322 25.3 163.397 25.644 163.397 26.06V28.5H162.629V26.148C162.629 25.7373 162.527 25.428 162.325 25.22C162.127 25.012 161.847 24.908 161.485 24.908C161.213 24.908 160.975 24.9613 160.773 25.068C160.57 25.1747 160.413 25.332 160.301 25.54C160.194 25.748 160.141 26.0067 160.141 26.316V28.5H159.373V24.26H160.109V25.404L159.989 25.1C160.127 24.8227 160.341 24.6067 160.629 24.452C160.917 24.2973 161.253 24.22 161.637 24.22ZM166.706 28.548C166.253 28.548 165.853 28.4547 165.506 28.268C165.165 28.0813 164.898 27.8253 164.706 27.5C164.519 27.1747 164.426 26.8013 164.426 26.38C164.426 25.9587 164.517 25.5853 164.698 25.26C164.885 24.9347 165.138 24.6813 165.458 24.5C165.783 24.3133 166.149 24.22 166.554 24.22C166.965 24.22 167.327 24.3107 167.642 24.492C167.957 24.6733 168.202 24.9293 168.378 25.26C168.559 25.5853 168.65 25.9667 168.65 26.404C168.65 26.436 168.647 26.4733 168.642 26.516C168.642 26.5587 168.639 26.5987 168.634 26.636H165.026V26.084H168.234L167.922 26.276C167.927 26.004 167.871 25.7613 167.754 25.548C167.637 25.3347 167.474 25.1693 167.266 25.052C167.063 24.9293 166.826 24.868 166.554 24.868C166.287 24.868 166.05 24.9293 165.842 25.052C165.634 25.1693 165.471 25.3373 165.354 25.556C165.237 25.7693 165.178 26.0147 165.178 26.292V26.42C165.178 26.7027 165.242 26.956 165.37 27.18C165.503 27.3987 165.687 27.5693 165.922 27.692C166.157 27.8147 166.426 27.876 166.73 27.876C166.981 27.876 167.207 27.8333 167.41 27.748C167.618 27.6627 167.799 27.5347 167.954 27.364L168.378 27.86C168.186 28.084 167.946 28.2547 167.658 28.372C167.375 28.4893 167.058 28.548 166.706 28.548Z" fill="white"/>
<path d="M33.048 53L33.036 46.88L30 51.98H29.448L26.412 46.916V53H25.26V44.6H26.244L29.748 50.504L33.204 44.6H34.188L34.2 53H33.048ZM39.2769 53.072C38.6449 53.072 38.0769 52.932 37.5729 52.652C37.0689 52.372 36.6729 51.988 36.3849 51.5C36.1049 51.004 35.9649 50.444 35.9649 49.82C35.9649 49.196 36.1049 48.64 36.3849 48.152C36.6729 47.656 37.0689 47.272 37.5729 47C38.0769 46.72 38.6449 46.58 39.2769 46.58C39.9089 46.58 40.4729 46.72 40.9689 47C41.4729 47.272 41.8649 47.656 42.1449 48.152C42.4329 48.64 42.5769 49.196 42.5769 49.82C42.5769 50.444 42.4329 51.004 42.1449 51.5C41.8649 51.988 41.4729 52.372 40.9689 52.652C40.4729 52.932 39.9089 53.072 39.2769 53.072ZM39.2769 52.064C39.6849 52.064 40.0489 51.972 40.3689 51.788C40.6969 51.596 40.9529 51.332 41.1369 50.996C41.3209 50.652 41.4129 50.26 41.4129 49.82C41.4129 49.38 41.3209 48.992 41.1369 48.656C40.9529 48.312 40.6969 48.048 40.3689 47.864C40.0489 47.68 39.6849 47.588 39.2769 47.588C38.8689 47.588 38.5009 47.68 38.1729 47.864C37.8529 48.048 37.5969 48.312 37.4049 48.656C37.2209 48.992 37.1289 49.38 37.1289 49.82C37.1289 50.26 37.2209 50.652 37.4049 50.996C37.5969 51.332 37.8529 51.596 38.1729 51.788C38.5009 51.972 38.8689 52.064 39.2769 52.064ZM47.5661 46.58C48.3741 46.58 49.0141 46.816 49.4861 47.288C49.9661 47.752 50.2061 48.436 50.2061 49.34V53H49.0541V49.472C49.0541 48.856 48.9061 48.392 48.6101 48.08C48.3141 47.768 47.8901 47.612 47.3381 47.612C46.7141 47.612 46.2221 47.796 45.8621 48.164C45.5021 48.524 45.3221 49.044 45.3221 49.724V53H44.1701V46.64H45.2741V47.6C45.5061 47.272 45.8181 47.02 46.2101 46.844C46.6101 46.668 47.0621 46.58 47.5661 46.58ZM58.3733 44.096V53H57.2693V51.992C57.0133 52.344 56.6893 52.612 56.2973 52.796C55.9053 52.98 55.4733 53.072 55.0013 53.072C54.3853 53.072 53.8333 52.936 53.3453 52.664C52.8573 52.392 52.4733 52.012 52.1933 51.524C51.9213 51.028 51.7853 50.46 51.7853 49.82C51.7853 49.18 51.9213 48.616 52.1933 48.128C52.4733 47.64 52.8573 47.26 53.3453 46.988C53.8333 46.716 54.3853 46.58 55.0013 46.58C55.4573 46.58 55.8773 46.668 56.2613 46.844C56.6453 47.012 56.9653 47.264 57.2213 47.6V44.096H58.3733ZM55.0973 52.064C55.4973 52.064 55.8613 51.972 56.1893 51.788C56.5173 51.596 56.7733 51.332 56.9573 50.996C57.1413 50.652 57.2333 50.26 57.2333 49.82C57.2333 49.38 57.1413 48.992 56.9573 48.656C56.7733 48.312 56.5173 48.048 56.1893 47.864C55.8613 47.68 55.4973 47.588 55.0973 47.588C54.6893 47.588 54.3213 47.68 53.9933 47.864C53.6733 48.048 53.4173 48.312 53.2253 48.656C53.0413 48.992 52.9493 49.38 52.9493 49.82C52.9493 50.26 53.0413 50.652 53.2253 50.996C53.4173 51.332 53.6733 51.596 53.9933 51.788C54.3213 51.972 54.6893 52.064 55.0973 52.064ZM62.8689 46.58C63.7489 46.58 64.4209 46.796 64.8849 47.228C65.3569 47.66 65.5929 48.304 65.5929 49.16V53H64.5009V52.16C64.3089 52.456 64.0329 52.684 63.6729 52.844C63.3209 52.996 62.9009 53.072 62.4129 53.072C61.7009 53.072 61.1289 52.9 60.6969 52.556C60.2729 52.212 60.0609 51.76 60.0609 51.2C60.0609 50.64 60.2649 50.192 60.6729 49.856C61.0809 49.512 61.7289 49.34 62.6169 49.34H64.4409V49.112C64.4409 48.616 64.2969 48.236 64.0089 47.972C63.7209 47.708 63.2969 47.576 62.7369 47.576C62.3609 47.576 61.9929 47.64 61.6329 47.768C61.2729 47.888 60.9689 48.052 60.7209 48.26L60.2409 47.396C60.5689 47.132 60.9609 46.932 61.4169 46.796C61.8729 46.652 62.3569 46.58 62.8689 46.58ZM62.6049 52.184C63.0449 52.184 63.4249 52.088 63.7449 51.896C64.0649 51.696 64.2969 51.416 64.4409 51.056V50.168H62.6649C61.6889 50.168 61.2009 50.496 61.2009 51.152C61.2009 51.472 61.3249 51.724 61.5729 51.908C61.8209 52.092 62.1649 52.184 62.6049 52.184ZM73.2356 46.64L70.1516 53.636C69.8796 54.284 69.5596 54.74 69.1916 55.004C68.8316 55.268 68.3956 55.4 67.8836 55.4C67.5716 55.4 67.2676 55.348 66.9716 55.244C66.6836 55.148 66.4436 55.004 66.2516 54.812L66.7436 53.948C67.0716 54.26 67.4516 54.416 67.8836 54.416C68.1636 54.416 68.3956 54.34 68.5796 54.188C68.7716 54.044 68.9436 53.792 69.0956 53.432L69.2996 52.988L66.4916 46.64H67.6916L69.9116 51.728L72.1076 46.64H73.2356ZM74.2003 51.428C74.4243 51.428 74.6083 51.508 74.7523 51.668C74.9043 51.82 74.9803 52.012 74.9803 52.244C74.9803 52.364 74.9643 52.48 74.9323 52.592C74.9083 52.704 74.8563 52.876 74.7763 53.108L74.2123 54.776H73.4563L73.9003 52.988C73.7483 52.932 73.6243 52.84 73.5283 52.712C73.4403 52.576 73.3963 52.42 73.3963 52.244C73.3963 52.004 73.4723 51.808 73.6243 51.656C73.7763 51.504 73.9683 51.428 74.2003 51.428ZM83.8137 53.096C82.9657 53.096 82.2017 52.912 81.5217 52.544C80.8417 52.168 80.3057 51.652 79.9137 50.996C79.5297 50.34 79.3377 49.608 79.3377 48.8C79.3377 47.992 79.5297 47.26 79.9137 46.604C80.3057 45.948 80.8417 45.436 81.5217 45.068C82.2017 44.692 82.9657 44.504 83.8137 44.504C84.6537 44.504 85.4137 44.692 86.0937 45.068C86.7737 45.436 87.3057 45.948 87.6897 46.604C88.0737 47.252 88.2657 47.984 88.2657 48.8C88.2657 49.616 88.0737 50.352 87.6897 51.008C87.3057 51.656 86.7737 52.168 86.0937 52.544C85.4137 52.912 84.6537 53.096 83.8137 53.096ZM83.8137 52.028C84.4297 52.028 84.9817 51.888 85.4697 51.608C85.9657 51.328 86.3537 50.944 86.6337 50.456C86.9217 49.96 87.0657 49.408 87.0657 48.8C87.0657 48.192 86.9217 47.644 86.6337 47.156C86.3537 46.66 85.9657 46.272 85.4697 45.992C84.9817 45.712 84.4297 45.572 83.8137 45.572C83.1977 45.572 82.6377 45.712 82.1337 45.992C81.6377 46.272 81.2457 46.66 80.9577 47.156C80.6777 47.644 80.5377 48.192 80.5377 48.8C80.5377 49.408 80.6777 49.96 80.9577 50.456C81.2457 50.944 81.6377 51.328 82.1337 51.608C82.6377 51.888 83.1977 52.028 83.8137 52.028ZM92.7038 53.072C92.0558 53.072 91.4758 52.932 90.9638 52.652C90.4598 52.372 90.0638 51.988 89.7758 51.5C89.4878 51.004 89.3438 50.444 89.3438 49.82C89.3438 49.196 89.4878 48.64 89.7758 48.152C90.0638 47.656 90.4598 47.272 90.9638 47C91.4758 46.72 92.0558 46.58 92.7038 46.58C93.2798 46.58 93.7918 46.696 94.2398 46.928C94.6958 47.16 95.0478 47.496 95.2958 47.936L94.4198 48.5C94.2198 48.196 93.9718 47.968 93.6758 47.816C93.3798 47.664 93.0518 47.588 92.6918 47.588C92.2758 47.588 91.8998 47.68 91.5638 47.864C91.2358 48.048 90.9758 48.312 90.7838 48.656C90.5998 48.992 90.5078 49.38 90.5078 49.82C90.5078 50.268 90.5998 50.664 90.7838 51.008C90.9758 51.344 91.2358 51.604 91.5638 51.788C91.8998 51.972 92.2758 52.064 92.6918 52.064C93.0518 52.064 93.3798 51.988 93.6758 51.836C93.9718 51.684 94.2198 51.456 94.4198 51.152L95.2958 51.704C95.0478 52.144 94.6958 52.484 94.2398 52.724C93.7918 52.956 93.2798 53.072 92.7038 53.072ZM100.445 52.628C100.277 52.772 100.069 52.884 99.8213 52.964C99.5733 53.036 99.3173 53.072 99.0533 53.072C98.4133 53.072 97.9173 52.9 97.5653 52.556C97.2133 52.212 97.0373 51.72 97.0373 51.08V47.588H95.9573V46.64H97.0373V45.248H98.1893V46.64H100.013V47.588H98.1893V51.032C98.1893 51.376 98.2733 51.64 98.4413 51.824C98.6173 52.008 98.8653 52.1 99.1853 52.1C99.5373 52.1 99.8373 52 100.085 51.8L100.445 52.628ZM107.149 44.6V53H105.961V45.644H104.065V44.6H107.149ZM114.122 48.596C114.602 48.78 114.97 49.044 115.226 49.388C115.482 49.732 115.61 50.144 115.61 50.624C115.61 51.128 115.474 51.568 115.202 51.944C114.93 52.312 114.542 52.596 114.038 52.796C113.534 52.996 112.942 53.096 112.262 53.096C111.59 53.096 111.002 52.996 110.498 52.796C110.002 52.596 109.618 52.312 109.346 51.944C109.074 51.568 108.938 51.128 108.938 50.624C108.938 50.144 109.062 49.732 109.31 49.388C109.566 49.044 109.934 48.78 110.414 48.596C110.03 48.412 109.738 48.168 109.538 47.864C109.338 47.56 109.238 47.2 109.238 46.784C109.238 46.32 109.362 45.916 109.61 45.572C109.866 45.228 110.222 44.964 110.678 44.78C111.134 44.596 111.662 44.504 112.262 44.504C112.87 44.504 113.402 44.596 113.858 44.78C114.322 44.964 114.678 45.228 114.926 45.572C115.182 45.916 115.31 46.32 115.31 46.784C115.31 47.192 115.206 47.552 114.998 47.864C114.798 48.168 114.506 48.412 114.122 48.596ZM112.262 45.476C111.694 45.476 111.246 45.6 110.918 45.848C110.59 46.088 110.426 46.416 110.426 46.832C110.426 47.248 110.586 47.576 110.906 47.816C111.234 48.056 111.686 48.176 112.262 48.176C112.846 48.176 113.302 48.056 113.63 47.816C113.966 47.576 114.134 47.248 114.134 46.832C114.134 46.416 113.962 46.088 113.618 45.848C113.282 45.6 112.83 45.476 112.262 45.476ZM112.262 52.124C112.926 52.124 113.45 51.988 113.834 51.716C114.218 51.436 114.41 51.06 114.41 50.588C114.41 50.124 114.218 49.76 113.834 49.496C113.45 49.224 112.926 49.088 112.262 49.088C111.598 49.088 111.078 49.224 110.702 49.496C110.326 49.76 110.138 50.124 110.138 50.588C110.138 51.06 110.326 51.436 110.702 51.716C111.078 51.988 111.598 52.124 112.262 52.124ZM117.63 51.428C117.854 51.428 118.038 51.508 118.182 51.668C118.334 51.82 118.41 52.012 118.41 52.244C118.41 52.364 118.394 52.48 118.362 52.592C118.338 52.704 118.286 52.876 118.206 53.108L117.642 54.776H116.886L117.33 52.988C117.178 52.932 117.054 52.84 116.958 52.712C116.87 52.576 116.826 52.42 116.826 52.244C116.826 52.004 116.902 51.808 117.054 51.656C117.206 51.504 117.398 51.428 117.63 51.428ZM125.371 44.6V53H124.183V45.644H122.287V44.6H125.371ZM129.813 44.6V53H128.625V45.644H126.729V44.6H129.813ZM132.442 48.224C132.218 48.224 132.026 48.148 131.866 47.996C131.706 47.836 131.626 47.636 131.626 47.396C131.626 47.164 131.706 46.972 131.866 46.82C132.026 46.66 132.218 46.58 132.442 46.58C132.666 46.58 132.854 46.656 133.006 46.808C133.158 46.96 133.234 47.156 133.234 47.396C133.234 47.636 133.154 47.836 132.994 47.996C132.842 48.148 132.658 48.224 132.442 48.224ZM132.442 53.072C132.218 53.072 132.026 52.996 131.866 52.844C131.706 52.684 131.626 52.484 131.626 52.244C131.626 52.012 131.706 51.82 131.866 51.668C132.026 51.508 132.218 51.428 132.442 51.428C132.666 51.428 132.854 51.504 133.006 51.656C133.158 51.808 133.234 52.004 133.234 52.244C133.234 52.484 133.154 52.684 132.994 52.844C132.842 52.996 132.658 53.072 132.442 53.072ZM137.801 53.096C137.137 53.096 136.545 52.928 136.025 52.592C135.513 52.248 135.109 51.752 134.813 51.104C134.517 50.456 134.369 49.688 134.369 48.8C134.369 47.912 134.517 47.144 134.813 46.496C135.109 45.848 135.513 45.356 136.025 45.02C136.545 44.676 137.137 44.504 137.801 44.504C138.457 44.504 139.041 44.676 139.553 45.02C140.073 45.356 140.481 45.848 140.777 46.496C141.073 47.144 141.221 47.912 141.221 48.8C141.221 49.688 141.073 50.456 140.777 51.104C140.481 51.752 140.073 52.248 139.553 52.592C139.041 52.928 138.457 53.096 137.801 53.096ZM137.801 52.028C138.473 52.028 139.009 51.752 139.409 51.2C139.817 50.648 140.021 49.848 140.021 48.8C140.021 47.752 139.817 46.952 139.409 46.4C139.009 45.848 138.473 45.572 137.801 45.572C137.121 45.572 136.577 45.848 136.169 46.4C135.769 46.952 135.569 47.752 135.569 48.8C135.569 49.848 135.769 50.648 136.169 51.2C136.577 51.752 137.121 52.028 137.801 52.028ZM145.805 53.096C145.141 53.096 144.549 52.928 144.029 52.592C143.517 52.248 143.113 51.752 142.817 51.104C142.521 50.456 142.373 49.688 142.373 48.8C142.373 47.912 142.521 47.144 142.817 46.496C143.113 45.848 143.517 45.356 144.029 45.02C144.549 44.676 145.141 44.504 145.805 44.504C146.461 44.504 147.045 44.676 147.557 45.02C148.077 45.356 148.485 45.848 148.781 46.496C149.077 47.144 149.225 47.912 149.225 48.8C149.225 49.688 149.077 50.456 148.781 51.104C148.485 51.752 148.077 52.248 147.557 52.592C147.045 52.928 146.461 53.096 145.805 53.096ZM145.805 52.028C146.477 52.028 147.013 51.752 147.413 51.2C147.821 50.648 148.025 49.848 148.025 48.8C148.025 47.752 147.821 46.952 147.413 46.4C147.013 45.848 146.477 45.572 145.805 45.572C145.125 45.572 144.581 45.848 144.173 46.4C143.773 46.952 143.573 47.752 143.573 48.8C143.573 49.848 143.773 50.648 144.173 51.2C144.581 51.752 145.125 52.028 145.805 52.028ZM156.319 50.9H151.855L150.931 53H149.695L153.499 44.6H154.687L158.503 53H157.243L156.319 50.9ZM155.899 49.94L154.087 45.824L152.275 49.94H155.899ZM167.544 53L167.532 46.88L164.496 51.98H163.944L160.908 46.916V53H159.756V44.6H160.74L164.244 50.504L167.7 44.6H168.684L168.696 53H167.544ZM173.864 49.208H177.092V50.204H173.864V49.208ZM184.176 44.6V53H182.988V45.644H181.092V44.6H184.176ZM191.918 51.956V53H185.882V52.184L189.302 48.884C189.718 48.484 189.998 48.14 190.142 47.852C190.286 47.556 190.358 47.26 190.358 46.964C190.358 46.524 190.202 46.184 189.89 45.944C189.586 45.696 189.146 45.572 188.57 45.572C187.642 45.572 186.926 45.876 186.422 46.484L185.606 45.776C185.934 45.376 186.362 45.064 186.89 44.84C187.426 44.616 188.022 44.504 188.678 44.504C189.558 44.504 190.258 44.716 190.778 45.14C191.298 45.556 191.558 46.124 191.558 46.844C191.558 47.292 191.462 47.716 191.27 48.116C191.078 48.516 190.714 48.972 190.178 49.484L187.61 51.956H191.918ZM193.696 48.224C193.472 48.224 193.28 48.148 193.12 47.996C192.96 47.836 192.88 47.636 192.88 47.396C192.88 47.164 192.96 46.972 193.12 46.82C193.28 46.66 193.472 46.58 193.696 46.58C193.92 46.58 194.108 46.656 194.26 46.808C194.412 46.96 194.488 47.156 194.488 47.396C194.488 47.636 194.408 47.836 194.248 47.996C194.096 48.148 193.912 48.224 193.696 48.224ZM193.696 53.072C193.472 53.072 193.28 52.996 193.12 52.844C192.96 52.684 192.88 52.484 192.88 52.244C192.88 52.012 192.96 51.82 193.12 51.668C193.28 51.508 193.472 51.428 193.696 51.428C193.92 51.428 194.108 51.504 194.26 51.656C194.412 51.808 194.488 52.004 194.488 52.244C194.488 52.484 194.408 52.684 194.248 52.844C194.096 52.996 193.912 53.072 193.696 53.072ZM199.055 53.096C198.391 53.096 197.799 52.928 197.279 52.592C196.767 52.248 196.363 51.752 196.067 51.104C195.771 50.456 195.623 49.688 195.623 48.8C195.623 47.912 195.771 47.144 196.067 46.496C196.363 45.848 196.767 45.356 197.279 45.02C197.799 44.676 198.391 44.504 199.055 44.504C199.711 44.504 200.295 44.676 200.807 45.02C201.327 45.356 201.735 45.848 202.031 46.496C202.327 47.144 202.475 47.912 202.475 48.8C202.475 49.688 202.327 50.456 202.031 51.104C201.735 51.752 201.327 52.248 200.807 52.592C200.295 52.928 199.711 53.096 199.055 53.096ZM199.055 52.028C199.727 52.028 200.263 51.752 200.663 51.2C201.071 50.648 201.275 49.848 201.275 48.8C201.275 47.752 201.071 46.952 200.663 46.4C200.263 45.848 199.727 45.572 199.055 45.572C198.375 45.572 197.831 45.848 197.423 46.4C197.023 46.952 196.823 47.752 196.823 48.8C196.823 49.848 197.023 50.648 197.423 51.2C197.831 51.752 198.375 52.028 199.055 52.028ZM207.059 53.096C206.395 53.096 205.803 52.928 205.283 52.592C204.771 52.248 204.367 51.752 204.071 51.104C203.775 50.456 203.627 49.688 203.627 48.8C203.627 47.912 203.775 47.144 204.071 46.496C204.367 45.848 204.771 45.356 205.283 45.02C205.803 44.676 206.395 44.504 207.059 44.504C207.715 44.504 208.299 44.676 208.811 45.02C209.331 45.356 209.739 45.848 210.035 46.496C210.331 47.144 210.479 47.912 210.479 48.8C210.479 49.688 210.331 50.456 210.035 51.104C209.739 51.752 209.331 52.248 208.811 52.592C208.299 52.928 207.715 53.096 207.059 53.096ZM207.059 52.028C207.731 52.028 208.267 51.752 208.667 51.2C209.075 50.648 209.279 49.848 209.279 48.8C209.279 47.752 209.075 46.952 208.667 46.4C208.267 45.848 207.731 45.572 207.059 45.572C206.379 45.572 205.835 45.848 205.427 46.4C205.027 46.952 204.827 47.752 204.827 48.8C204.827 49.848 205.027 50.648 205.427 51.2C205.835 51.752 206.379 52.028 207.059 52.028ZM215.591 44.6C216.679 44.6 217.535 44.86 218.159 45.38C218.783 45.9 219.095 46.616 219.095 47.528C219.095 48.44 218.783 49.156 218.159 49.676C217.535 50.196 216.679 50.456 215.591 50.456H213.515V53H212.315V44.6H215.591ZM215.555 49.412C216.315 49.412 216.895 49.252 217.295 48.932C217.695 48.604 217.895 48.136 217.895 47.528C217.895 46.92 217.695 46.456 217.295 46.136C216.895 45.808 216.315 45.644 215.555 45.644H213.515V49.412H215.555ZM228.646 53L228.634 46.88L225.598 51.98H225.046L222.01 46.916V53H220.858V44.6H221.842L225.346 50.504L228.802 44.6H229.786L229.798 53H228.646ZM236.849 55.328C236.393 54.592 236.041 53.748 235.793 52.796C235.545 51.836 235.421 50.808 235.421 49.712C235.421 48.616 235.545 47.588 235.793 46.628C236.041 45.66 236.393 44.816 236.849 44.096H237.941C237.461 44.936 237.109 45.816 236.885 46.736C236.661 47.656 236.549 48.648 236.549 49.712C236.549 50.776 236.661 51.768 236.885 52.688C237.109 53.608 237.461 54.488 237.941 55.328H236.849ZM245.404 48.752H246.556V52.028C246.14 52.372 245.656 52.636 245.104 52.82C244.552 53.004 243.976 53.096 243.376 53.096C242.528 53.096 241.764 52.912 241.084 52.544C240.404 52.168 239.868 51.656 239.476 51.008C239.092 50.352 238.9 49.616 238.9 48.8C238.9 47.984 239.092 47.248 239.476 46.592C239.868 45.936 240.404 45.424 241.084 45.056C241.772 44.688 242.544 44.504 243.4 44.504C244.072 44.504 244.68 44.616 245.224 44.84C245.776 45.056 246.244 45.376 246.628 45.8L245.884 46.544C245.212 45.896 244.4 45.572 243.448 45.572C242.808 45.572 242.232 45.712 241.72 45.992C241.216 46.264 240.82 46.648 240.532 47.144C240.244 47.632 240.1 48.184 240.1 48.8C240.1 49.408 240.244 49.96 240.532 50.456C240.82 50.944 241.216 51.328 241.72 51.608C242.232 51.888 242.804 52.028 243.436 52.028C244.188 52.028 244.844 51.848 245.404 51.488V48.752ZM256.642 53L256.63 46.88L253.594 51.98H253.042L250.006 46.916V53H248.854V44.6H249.838L253.342 50.504L256.798 44.6H257.782L257.794 53H256.642ZM261.983 45.644H259.103V44.6H266.051V45.644H263.171V53H261.983V45.644ZM266.383 49.208H269.611V50.204H266.383V49.208ZM278.259 50.936H276.663V53H275.499V50.936H270.831V50.096L275.127 44.6H276.423L272.307 49.904H275.535V48.08H276.663V49.904H278.259V50.936ZM278.786 55.328C279.266 54.488 279.618 53.608 279.842 52.688C280.074 51.768 280.19 50.776 280.19 49.712C280.19 48.648 280.074 47.656 279.842 46.736C279.618 45.816 279.266 44.936 278.786 44.096H279.878C280.342 44.816 280.698 45.656 280.946 46.616C281.194 47.576 281.318 48.608 281.318 49.712C281.318 50.808 281.194 51.836 280.946 52.796C280.698 53.756 280.342 54.6 279.878 55.328H278.786Z" fill="#475467"/>
<path d="M31.08 74.752H32.232V78.028C31.816 78.372 31.332 78.636 30.78 78.82C30.228 79.004 29.652 79.096 29.052 79.096C28.204 79.096 27.44 78.912 26.76 78.544C26.08 78.168 25.544 77.656 25.152 77.008C24.768 76.352 24.576 75.616 24.576 74.8C24.576 73.984 24.768 73.248 25.152 72.592C25.544 71.936 26.08 71.424 26.76 71.056C27.448 70.688 28.22 70.504 29.076 70.504C29.748 70.504 30.356 70.616 30.9 70.84C31.452 71.056 31.92 71.376 32.304 71.8L31.56 72.544C30.888 71.896 30.076 71.572 29.124 71.572C28.484 71.572 27.908 71.712 27.396 71.992C26.892 72.264 26.496 72.648 26.208 73.144C25.92 73.632 25.776 74.184 25.776 74.8C25.776 75.408 25.92 75.96 26.208 76.456C26.496 76.944 26.892 77.328 27.396 77.608C27.908 77.888 28.48 78.028 29.112 78.028C29.864 78.028 30.52 77.848 31.08 77.488V74.752ZM40.1095 75.856C40.1095 75.944 40.1015 76.06 40.0855 76.204H34.9255C34.9975 76.764 35.2415 77.216 35.6575 77.56C36.0815 77.896 36.6055 78.064 37.2295 78.064C37.9895 78.064 38.6015 77.808 39.0655 77.296L39.7015 78.04C39.4135 78.376 39.0535 78.632 38.6215 78.808C38.1975 78.984 37.7215 79.072 37.1935 79.072C36.5215 79.072 35.9255 78.936 35.4055 78.664C34.8855 78.384 34.4815 77.996 34.1935 77.5C33.9135 77.004 33.7735 76.444 33.7735 75.82C33.7735 75.204 33.9095 74.648 34.1815 74.152C34.4615 73.656 34.8415 73.272 35.3215 73C35.8095 72.72 36.3575 72.58 36.9655 72.58C37.5735 72.58 38.1135 72.72 38.5855 73C39.0655 73.272 39.4375 73.656 39.7015 74.152C39.9735 74.648 40.1095 75.216 40.1095 75.856ZM36.9655 73.552C36.4135 73.552 35.9495 73.72 35.5735 74.056C35.2055 74.392 34.9895 74.832 34.9255 75.376H39.0055C38.9415 74.84 38.7215 74.404 38.3455 74.068C37.9775 73.724 37.5175 73.552 36.9655 73.552ZM45.2852 78.628C45.1172 78.772 44.9092 78.884 44.6612 78.964C44.4132 79.036 44.1572 79.072 43.8932 79.072C43.2532 79.072 42.7572 78.9 42.4052 78.556C42.0532 78.212 41.8772 77.72 41.8772 77.08V73.588H40.7972V72.64H41.8772V71.248H43.0292V72.64H44.8532V73.588H43.0292V77.032C43.0292 77.376 43.1132 77.64 43.2812 77.824C43.4572 78.008 43.7052 78.1 44.0252 78.1C44.3772 78.1 44.6772 78 44.9252 77.8L45.2852 78.628ZM53.4766 78.628C53.3086 78.772 53.1006 78.884 52.8526 78.964C52.6046 79.036 52.3486 79.072 52.0846 79.072C51.4446 79.072 50.9486 78.9 50.5966 78.556C50.2446 78.212 50.0686 77.72 50.0686 77.08V73.588H48.9886V72.64H50.0686V71.248H51.2206V72.64H53.0446V73.588H51.2206V77.032C51.2206 77.376 51.3046 77.64 51.4726 77.824C51.6486 78.008 51.8966 78.1 52.2166 78.1C52.5686 78.1 52.8686 78 53.1166 77.8L53.4766 78.628ZM57.3824 79.072C56.7504 79.072 56.1824 78.932 55.6784 78.652C55.1744 78.372 54.7784 77.988 54.4904 77.5C54.2104 77.004 54.0704 76.444 54.0704 75.82C54.0704 75.196 54.2104 74.64 54.4904 74.152C54.7784 73.656 55.1744 73.272 55.6784 73C56.1824 72.72 56.7504 72.58 57.3824 72.58C58.0144 72.58 58.5784 72.72 59.0744 73C59.5784 73.272 59.9704 73.656 60.2504 74.152C60.5384 74.64 60.6824 75.196 60.6824 75.82C60.6824 76.444 60.5384 77.004 60.2504 77.5C59.9704 77.988 59.5784 78.372 59.0744 78.652C58.5784 78.932 58.0144 79.072 57.3824 79.072ZM57.3824 78.064C57.7904 78.064 58.1544 77.972 58.4744 77.788C58.8024 77.596 59.0584 77.332 59.2424 76.996C59.4264 76.652 59.5184 76.26 59.5184 75.82C59.5184 75.38 59.4264 74.992 59.2424 74.656C59.0584 74.312 58.8024 74.048 58.4744 73.864C58.1544 73.68 57.7904 73.588 57.3824 73.588C56.9744 73.588 56.6064 73.68 56.2784 73.864C55.9584 74.048 55.7024 74.312 55.5104 74.656C55.3264 74.992 55.2344 75.38 55.2344 75.82C55.2344 76.26 55.3264 76.652 55.5104 76.996C55.7024 77.332 55.9584 77.596 56.2784 77.788C56.6064 77.972 56.9744 78.064 57.3824 78.064ZM67.9703 76.036L66.6503 77.26V79H65.4983V70.096H66.6503V75.808L70.1183 72.64H71.5103L68.8343 75.268L71.7743 79H70.3583L67.9703 76.036ZM76.2068 72.58C77.0148 72.58 77.6548 72.816 78.1268 73.288C78.6068 73.752 78.8468 74.436 78.8468 75.34V79H77.6948V75.472C77.6948 74.856 77.5468 74.392 77.2508 74.08C76.9548 73.768 76.5308 73.612 75.9788 73.612C75.3548 73.612 74.8628 73.796 74.5028 74.164C74.1428 74.524 73.9628 75.044 73.9628 75.724V79H72.8108V72.64H73.9148V73.6C74.1468 73.272 74.4588 73.02 74.8508 72.844C75.2508 72.668 75.7028 72.58 76.2068 72.58ZM83.7379 79.072C83.1059 79.072 82.5379 78.932 82.0339 78.652C81.5299 78.372 81.1339 77.988 80.8459 77.5C80.5659 77.004 80.4259 76.444 80.4259 75.82C80.4259 75.196 80.5659 74.64 80.8459 74.152C81.1339 73.656 81.5299 73.272 82.0339 73C82.5379 72.72 83.1059 72.58 83.7379 72.58C84.3699 72.58 84.9339 72.72 85.4299 73C85.9339 73.272 86.3259 73.656 86.6059 74.152C86.8939 74.64 87.0379 75.196 87.0379 75.82C87.0379 76.444 86.8939 77.004 86.6059 77.5C86.3259 77.988 85.9339 78.372 85.4299 78.652C84.9339 78.932 84.3699 79.072 83.7379 79.072ZM83.7379 78.064C84.1459 78.064 84.5099 77.972 84.8299 77.788C85.1579 77.596 85.4139 77.332 85.5979 76.996C85.7819 76.652 85.8739 76.26 85.8739 75.82C85.8739 75.38 85.7819 74.992 85.5979 74.656C85.4139 74.312 85.1579 74.048 84.8299 73.864C84.5099 73.68 84.1459 73.588 83.7379 73.588C83.3299 73.588 82.9619 73.68 82.6339 73.864C82.3139 74.048 82.0579 74.312 81.8659 74.656C81.6819 74.992 81.5899 75.38 81.5899 75.82C81.5899 76.26 81.6819 76.652 81.8659 76.996C82.0579 77.332 82.3139 77.596 82.6339 77.788C82.9619 77.972 83.3299 78.064 83.7379 78.064ZM98.0793 72.64L95.7033 79H94.5993L92.7633 74.176L90.9033 79H89.7993L87.4353 72.64H88.5273L90.3753 77.704L92.2953 72.64H93.2673L95.1513 77.728L97.0473 72.64H98.0793ZM106.047 78.628C105.879 78.772 105.671 78.884 105.423 78.964C105.175 79.036 104.919 79.072 104.655 79.072C104.015 79.072 103.519 78.9 103.167 78.556C102.815 78.212 102.639 77.72 102.639 77.08V73.588H101.559V72.64H102.639V71.248H103.791V72.64H105.615V73.588H103.791V77.032C103.791 77.376 103.875 77.64 104.043 77.824C104.219 78.008 104.467 78.1 104.787 78.1C105.139 78.1 105.439 78 105.687 77.8L106.047 78.628ZM110.836 72.58C111.644 72.58 112.284 72.816 112.756 73.288C113.236 73.752 113.476 74.436 113.476 75.34V79H112.324V75.472C112.324 74.856 112.176 74.392 111.88 74.08C111.584 73.768 111.16 73.612 110.608 73.612C109.984 73.612 109.492 73.796 109.132 74.164C108.772 74.524 108.592 75.044 108.592 75.724V79H107.44V70.096H108.592V73.54C108.832 73.236 109.144 73 109.528 72.832C109.92 72.664 110.356 72.58 110.836 72.58ZM121.391 75.856C121.391 75.944 121.383 76.06 121.367 76.204H116.207C116.279 76.764 116.523 77.216 116.939 77.56C117.363 77.896 117.887 78.064 118.511 78.064C119.271 78.064 119.883 77.808 120.347 77.296L120.983 78.04C120.695 78.376 120.335 78.632 119.903 78.808C119.479 78.984 119.003 79.072 118.475 79.072C117.803 79.072 117.207 78.936 116.687 78.664C116.167 78.384 115.763 77.996 115.475 77.5C115.195 77.004 115.055 76.444 115.055 75.82C115.055 75.204 115.191 74.648 115.463 74.152C115.743 73.656 116.123 73.272 116.603 73C117.091 72.72 117.639 72.58 118.247 72.58C118.855 72.58 119.395 72.72 119.867 73C120.347 73.272 120.719 73.656 120.983 74.152C121.255 74.648 121.391 75.216 121.391 75.856ZM118.247 73.552C117.695 73.552 117.231 73.72 116.855 74.056C116.487 74.392 116.271 74.832 116.207 75.376H120.287C120.223 74.84 120.003 74.404 119.627 74.068C119.259 73.724 118.799 73.552 118.247 73.552ZM129.789 78.628C129.621 78.772 129.413 78.884 129.165 78.964C128.917 79.036 128.661 79.072 128.397 79.072C127.757 79.072 127.261 78.9 126.909 78.556C126.557 78.212 126.381 77.72 126.381 77.08V73.588H125.301V72.64H126.381V71.248H127.533V72.64H129.357V73.588H127.533V77.032C127.533 77.376 127.617 77.64 127.785 77.824C127.961 78.008 128.209 78.1 128.529 78.1C128.881 78.1 129.181 78 129.429 77.8L129.789 78.628ZM136.719 75.856C136.719 75.944 136.711 76.06 136.695 76.204H131.535C131.607 76.764 131.851 77.216 132.267 77.56C132.691 77.896 133.215 78.064 133.839 78.064C134.599 78.064 135.211 77.808 135.675 77.296L136.311 78.04C136.023 78.376 135.663 78.632 135.231 78.808C134.807 78.984 134.331 79.072 133.803 79.072C133.131 79.072 132.535 78.936 132.015 78.664C131.495 78.384 131.091 77.996 130.803 77.5C130.523 77.004 130.383 76.444 130.383 75.82C130.383 75.204 130.519 74.648 130.791 74.152C131.071 73.656 131.451 73.272 131.931 73C132.419 72.72 132.967 72.58 133.575 72.58C134.183 72.58 134.723 72.72 135.195 73C135.675 73.272 136.047 73.656 136.311 74.152C136.583 74.648 136.719 75.216 136.719 75.856ZM133.575 73.552C133.023 73.552 132.559 73.72 132.183 74.056C131.815 74.392 131.599 74.832 131.535 75.376H135.615C135.551 74.84 135.331 74.404 134.955 74.068C134.587 73.724 134.127 73.552 133.575 73.552ZM140.459 72.58C141.339 72.58 142.011 72.796 142.475 73.228C142.947 73.66 143.183 74.304 143.183 75.16V79H142.091V78.16C141.899 78.456 141.623 78.684 141.263 78.844C140.911 78.996 140.491 79.072 140.003 79.072C139.291 79.072 138.719 78.9 138.287 78.556C137.863 78.212 137.651 77.76 137.651 77.2C137.651 76.64 137.855 76.192 138.263 75.856C138.671 75.512 139.319 75.34 140.207 75.34H142.031V75.112C142.031 74.616 141.887 74.236 141.599 73.972C141.311 73.708 140.887 73.576 140.327 73.576C139.951 73.576 139.583 73.64 139.223 73.768C138.863 73.888 138.559 74.052 138.311 74.26L137.831 73.396C138.159 73.132 138.551 72.932 139.007 72.796C139.463 72.652 139.947 72.58 140.459 72.58ZM140.195 78.184C140.635 78.184 141.015 78.088 141.335 77.896C141.655 77.696 141.887 77.416 142.031 77.056V76.168H140.255C139.279 76.168 138.791 76.496 138.791 77.152C138.791 77.472 138.915 77.724 139.163 77.908C139.411 78.092 139.755 78.184 140.195 78.184ZM153.271 72.58C154.071 72.58 154.703 72.812 155.167 73.276C155.639 73.74 155.875 74.428 155.875 75.34V79H154.723V75.472C154.723 74.856 154.579 74.392 154.291 74.08C154.011 73.768 153.607 73.612 153.079 73.612C152.495 73.612 152.031 73.796 151.687 74.164C151.343 74.524 151.171 75.044 151.171 75.724V79H150.019V75.472C150.019 74.856 149.875 74.392 149.587 74.08C149.307 73.768 148.903 73.612 148.375 73.612C147.791 73.612 147.327 73.796 146.983 74.164C146.639 74.524 146.467 75.044 146.467 75.724V79H145.315V72.64H146.419V73.588C146.651 73.26 146.955 73.012 147.331 72.844C147.707 72.668 148.135 72.58 148.615 72.58C149.111 72.58 149.551 72.68 149.935 72.88C150.319 73.08 150.615 73.372 150.823 73.756C151.063 73.388 151.395 73.1 151.819 72.892C152.251 72.684 152.735 72.58 153.271 72.58ZM157.838 70.6H159.194L158.966 76.348H158.054L157.838 70.6ZM158.522 79.072C158.298 79.072 158.11 79 157.958 78.856C157.806 78.704 157.73 78.52 157.73 78.304C157.73 78.088 157.806 77.908 157.958 77.764C158.11 77.612 158.298 77.536 158.522 77.536C158.746 77.536 158.93 77.612 159.074 77.764C159.218 77.908 159.29 78.088 159.29 78.304C159.29 78.52 159.214 78.704 159.062 78.856C158.918 79 158.738 79.072 158.522 79.072Z" fill="#98A2B3"/>
<g filter="url(#filter0_d_3230_33943)">
<rect x="364" y="34" width="87" height="32" rx="16" fill="#475467"/>
<g clip-path="url(#clip1_3230_33943)">
<path d="M387.209 45.1245C387.351 44.9822 387.52 44.8694 387.706 44.7924C387.892 44.7154 388.091 44.6758 388.292 44.6758C388.494 44.6758 388.693 44.7154 388.879 44.7924C389.064 44.8694 389.233 44.9822 389.376 45.1245C389.518 45.2668 389.631 45.4357 389.708 45.6216C389.785 45.8074 389.824 46.0067 389.824 46.2078C389.824 46.409 389.785 46.6083 389.708 46.7941C389.631 46.98 389.518 47.1489 389.376 47.2912L382.063 54.6037L379.084 55.4162L379.896 52.437L387.209 45.1245Z" stroke="white" stroke-width="2" stroke-linecap="round" stroke-linejoin="round"/>
</g>
<path d="M411.666 53.474V55H404.316V45.2H411.47V46.726H406.136V49.274H410.868V50.772H406.136V53.474H411.666ZM413.695 45.2H417.979C419.024 45.2 419.953 45.4053 420.765 45.816C421.577 46.2173 422.207 46.7913 422.655 47.538C423.103 48.2753 423.327 49.1293 423.327 50.1C423.327 51.0707 423.103 51.9293 422.655 52.676C422.207 53.4133 421.577 53.9873 420.765 54.398C419.953 54.7993 419.024 55 417.979 55H413.695V45.2ZM417.895 53.46C418.614 53.46 419.244 53.3247 419.785 53.054C420.336 52.774 420.756 52.382 421.045 51.878C421.344 51.3647 421.493 50.772 421.493 50.1C421.493 49.428 421.344 48.84 421.045 48.336C420.756 47.8227 420.336 47.4307 419.785 47.16C419.244 46.88 418.614 46.74 417.895 46.74H415.515V53.46H417.895ZM425.261 45.2H427.081V55H425.261V45.2ZM431.72 46.74H428.472V45.2H436.788V46.74H433.54V55H431.72V46.74Z" fill="white"/>
</g>
<rect x="0.5" y="0.5" width="538" height="99" rx="9.5" stroke="#D0D5DD"/>
<defs>
<filter id="filter0_d_3230_33943" x="362" y="33" width="91" height="36" filterUnits="userSpaceOnUse" color-interpolation-filters="sRGB">
<feFlood flood-opacity="0" result="BackgroundImageFix"/>
<feColorMatrix in="SourceAlpha" type="matrix" values="0 0 0 0 0 0 0 0 0 0 0 0 0 0 0 0 0 0 127 0" result="hardAlpha"/>
<feOffset dy="1"/>
<feGaussianBlur stdDeviation="1"/>
<feColorMatrix type="matrix" values="0 0 0 0 0.0627451 0 0 0 0 0.0941176 0 0 0 0 0.156863 0 0 0 0.05 0"/>
<feBlend mode="normal" in2="BackgroundImageFix" result="effect1_dropShadow_3230_33943"/>
<feBlend mode="normal" in="SourceGraphic" in2="effect1_dropShadow_3230_33943" result="shape"/>
</filter>
<clipPath id="clip0_3230_33943">
<rect width="8" height="8" fill="white" transform="translate(130 21.5)"/>
</clipPath>
<clipPath id="clip1_3230_33943">
<rect width="13" height="13" fill="white" transform="translate(378 43.5)"/>
</clipPath>
</defs>
</svg>
