<svg width="28" height="26" viewBox="0 0 28 26" fill="none" xmlns="http://www.w3.org/2000/svg">
<path d="M1.08301 1.375V0.375C0.530723 0.375 0.0830078 0.822715 0.0830078 1.375L1.08301 1.375ZM13.9997 6.54167H14.9997H13.9997ZM12.9997 24.625C12.9997 25.1773 13.4474 25.625 13.9997 25.625C14.552 25.625 14.9997 25.1773 14.9997 24.625H12.9997ZM10.1247 20.75V19.75V20.75ZM1.08301 20.75H0.0830078C0.0830078 21.3023 0.530723 21.75 1.08301 21.75L1.08301 20.75ZM26.9163 1.375H27.9163C27.9163 0.822715 27.4686 0.375 26.9163 0.375V1.375ZM19.1663 1.375V0.375V1.375ZM17.8747 20.75V19.75V20.75ZM26.9163 20.75V21.75C27.4686 21.75 27.9163 21.3023 27.9163 20.75H26.9163ZM1.08301 2.375H8.83301V0.375H1.08301V2.375ZM8.83301 2.375C9.93808 2.375 10.9979 2.81399 11.7793 3.59539L13.1935 2.18117C12.037 1.0247 10.4685 0.375 8.83301 0.375V2.375ZM11.7793 3.59539C12.5607 4.37679 12.9997 5.4366 12.9997 6.54167H14.9997C14.9997 4.90616 14.35 3.33765 13.1935 2.18117L11.7793 3.59539ZM12.9997 6.54167V24.625H14.9997V6.54167H12.9997ZM14.9997 24.625C14.9997 23.3321 14.4861 22.0921 13.5718 21.1779L12.1576 22.5921C12.6968 23.1312 12.9997 23.8625 12.9997 24.625H14.9997ZM13.5718 21.1779C12.6576 20.2636 11.4176 19.75 10.1247 19.75V21.75C10.8872 21.75 11.6184 22.0529 12.1576 22.5921L13.5718 21.1779ZM10.1247 19.75H1.08301V21.75H10.1247V19.75ZM2.08301 20.75V1.375H0.0830078V20.75H2.08301ZM26.9163 0.375H19.1663V2.375H26.9163V0.375ZM19.1663 0.375C17.5308 0.375 15.9623 1.0247 14.8058 2.18117L16.2201 3.59539C17.0015 2.81399 18.0613 2.375 19.1663 2.375V0.375ZM14.8058 2.18117C13.6494 3.33765 12.9997 4.90616 12.9997 6.54167H14.9997C14.9997 5.4366 15.4387 4.37679 16.2201 3.59539L14.8058 2.18117ZM14.9997 24.625C14.9997 23.8625 15.3026 23.1312 15.8417 22.5921L14.4275 21.1779C13.5133 22.0921 12.9997 23.3321 12.9997 24.625H14.9997ZM15.8417 22.5921C16.3809 22.0529 17.1122 21.75 17.8747 21.75V19.75C16.5817 19.75 15.3418 20.2636 14.4275 21.1779L15.8417 22.5921ZM17.8747 21.75H26.9163V19.75H17.8747V21.75ZM27.9163 20.75V1.375H25.9163V20.75H27.9163Z" fill="#667085"/>
</svg>
