<svg width="51" height="51" viewBox="0 0 51 51" fill="none" xmlns="http://www.w3.org/2000/svg">
<path d="M38.0002 17.4065H35.9168V13.2398C35.9168 7.48983 31.2502 2.82317 25.5002 2.82317C19.7502 2.82317 15.0835 7.48983 15.0835 13.2398V17.4065H13.0002C10.7085 17.4065 8.8335 19.2815 8.8335 21.5732V42.4065C8.8335 44.6982 10.7085 46.5732 13.0002 46.5732H38.0002C40.2918 46.5732 42.1668 44.6982 42.1668 42.4065V21.5732C42.1668 19.2815 40.2918 17.4065 38.0002 17.4065ZM25.5002 36.1565C23.2085 36.1565 21.3335 34.2815 21.3335 31.9898C21.3335 29.6982 23.2085 27.8232 25.5002 27.8232C27.7918 27.8232 29.6668 29.6982 29.6668 31.9898C29.6668 34.2815 27.7918 36.1565 25.5002 36.1565ZM31.9585 17.4065H19.0418V13.2398C19.0418 9.67733 21.9377 6.7815 25.5002 6.7815C29.0627 6.7815 31.9585 9.67733 31.9585 13.2398V17.4065Z" fill="black"/>
</svg>
