<svg width="184" height="184" viewBox="0 0 184 184" fill="none" xmlns="http://www.w3.org/2000/svg">
<g filter="url(#filter0_dd_583_11905)">
<rect x="12" width="160" height="160" rx="16" fill="white"/>
<path d="M102.348 114.304C121.486 114.304 137 98.7895 137 79.6518C137 60.5142 121.486 45 102.348 45C93.295 45 85.0527 48.4718 78.88 54.1566C89.4047 58.5405 96.8034 68.9251 96.8034 81.0379C96.8034 92.3244 90.3796 102.111 80.9888 106.94C86.8744 111.553 94.2901 114.304 102.348 114.304Z" fill="black"/>
<path fill-rule="evenodd" clip-rule="evenodd" d="M88.5822 81.0379C88.5822 92.5205 79.2737 101.829 67.7911 101.829C56.3085 101.829 47 92.5205 47 81.0379C47 69.5553 56.3085 60.2468 67.7911 60.2468C79.2737 60.2468 88.5822 69.5553 88.5822 81.0379ZM80.2658 81.0379C80.2658 87.9275 74.6807 93.5126 67.7911 93.5126C60.9015 93.5126 55.3164 87.9275 55.3164 81.0379C55.3164 74.1483 60.9015 68.5633 67.7911 68.5633C74.6807 68.5633 80.2658 74.1483 80.2658 81.0379Z" fill="black"/>
</g>
<defs>
<filter id="filter0_dd_583_11905" x="0" y="0" width="184" height="184" filterUnits="userSpaceOnUse" color-interpolation-filters="sRGB">
<feFlood flood-opacity="0" result="BackgroundImageFix"/>
<feColorMatrix in="SourceAlpha" type="matrix" values="0 0 0 0 0 0 0 0 0 0 0 0 0 0 0 0 0 0 127 0" result="hardAlpha"/>
<feMorphology radius="2" operator="erode" in="SourceAlpha" result="effect1_dropShadow_583_11905"/>
<feOffset dy="4"/>
<feGaussianBlur stdDeviation="3"/>
<feColorMatrix type="matrix" values="0 0 0 0 0.0627451 0 0 0 0 0.0941176 0 0 0 0 0.156863 0 0 0 0.05 0"/>
<feBlend mode="normal" in2="BackgroundImageFix" result="effect1_dropShadow_583_11905"/>
<feColorMatrix in="SourceAlpha" type="matrix" values="0 0 0 0 0 0 0 0 0 0 0 0 0 0 0 0 0 0 127 0" result="hardAlpha"/>
<feMorphology radius="4" operator="erode" in="SourceAlpha" result="effect2_dropShadow_583_11905"/>
<feOffset dy="12"/>
<feGaussianBlur stdDeviation="8"/>
<feColorMatrix type="matrix" values="0 0 0 0 0.0627451 0 0 0 0 0.0941176 0 0 0 0 0.156863 0 0 0 0.1 0"/>
<feBlend mode="normal" in2="effect1_dropShadow_583_11905" result="effect2_dropShadow_583_11905"/>
<feBlend mode="normal" in="SourceGraphic" in2="effect2_dropShadow_583_11905" result="shape"/>
</filter>
</defs>
</svg>
