<svg width="135" height="32" viewBox="0 0 135 32" fill="none" xmlns="http://www.w3.org/2000/svg">
<path d="M25.5563 32C34.3928 32 41.5562 24.8366 41.5562 16C41.5562 7.16344 34.3928 0 25.5563 0C21.3761 0 17.5703 1.60304 14.7202 4.22792C19.5798 6.25212 22.996 11.0471 22.996 16.64C22.996 21.8514 20.0299 26.37 15.6938 28.5998C18.4114 30.73 21.8355 32 25.5563 32Z" fill="white"/>
<path fill-rule="evenodd" clip-rule="evenodd" d="M19.2 16.64C19.2 21.9419 14.9019 26.24 9.6 26.24C4.29807 26.24 0 21.9419 0 16.64C0 11.3381 4.29807 7.04 9.6 7.04C14.9019 7.04 19.2 11.3381 19.2 16.64ZM15.36 16.64C15.36 19.8212 12.7812 22.4 9.6 22.4C6.41884 22.4 3.84 19.8212 3.84 16.64C3.84 13.4588 6.41884 10.88 9.6 10.88C12.7812 10.88 15.36 13.4588 15.36 16.64Z" fill="white"/>
<path d="M52.0599 9.56216H45.5111V6.40015H62.2066V9.56216H55.6578V24.1779H52.0599V9.56216Z" fill="white"/>
<path d="M66.0428 6.40015H69.6407V13.4024H80.6727V6.40015H84.2819V24.1779H80.6727V16.4848H69.6407V24.1779H66.0428V6.40015Z" fill="white"/>
<path d="M104.428 6.40015H89.3212V24.1779H104.666V21.0273H92.9191V16.6129H103.111V13.6442H92.9191V9.56216H104.428V6.40015Z" fill="white"/>
<path d="M108.207 6.40015H111.828V24.1779H108.207V6.40015Z" fill="white"/>
<path d="M126.287 6.40015H122.474L114.143 24.1779H117.934L124.415 10.1422L131.088 24.1779H134.868L126.287 6.40015Z" fill="white"/>
</svg>
