<svg width="20" height="20" viewBox="0 0 20 20" fill="none" xmlns="http://www.w3.org/2000/svg">
<path d="M18.2929 19.7071C18.6834 20.0976 19.3166 20.0976 19.7071 19.7071C20.0976 19.3166 20.0976 18.6834 19.7071 18.2929L18.2929 19.7071ZM15.3571 13.9429C14.9666 13.5524 14.3334 13.5524 13.9429 13.9429C13.5524 14.3334 13.5524 14.9666 13.9429 15.3571L15.3571 13.9429ZM16 9C16 12.866 12.866 16 9 16V18C13.9706 18 18 13.9706 18 9H16ZM9 16C5.13401 16 2 12.866 2 9H0C0 13.9706 4.02944 18 9 18V16ZM2 9C2 5.13401 5.13401 2 9 2V0C4.02944 0 0 4.02944 0 9H2ZM9 2C12.866 2 16 5.13401 16 9H18C18 4.02944 13.9706 0 9 0V2ZM19.7071 18.2929L15.3571 13.9429L13.9429 15.3571L18.2929 19.7071L19.7071 18.2929Z" fill="#101828"/>
</svg>
