<svg width="40" height="40" viewBox="0 0 40 40" fill="none" xmlns="http://www.w3.org/2000/svg">
<rect width="40" height="40" rx="20" fill="#101828"/>
<path d="M12.936 14.9236C14.122 14.4756 15.3457 14.1337 16.5931 13.9023L17.9569 15.2569H21.6461L23.0094 13.9023C24.2567 14.1337 25.4804 14.4756 26.6665 14.9236C27.191 15.1108 27.6446 15.4546 27.9653 15.9077C28.2858 16.361 28.4575 16.9013 28.457 17.4554V24.3354C28.4538 24.8933 28.2775 25.4368 27.9522 25.8917C27.627 26.3467 27.1686 26.691 26.6394 26.8777C24.4929 27.6835 22.2146 28.0864 19.9203 28.0655H19.6822C17.3876 28.0864 15.1093 27.6835 12.963 26.8777C12.4339 26.691 11.9756 26.3467 11.6503 25.8917C11.3249 25.4368 11.1486 24.8933 11.1455 24.3354V17.4554C11.145 16.9013 11.3167 16.361 11.6372 15.9077C11.958 15.4546 12.4115 15.1108 12.936 14.9236Z" stroke="white"/>
<path d="M19.8024 8.00013C17.4149 7.98819 15.0949 8.7821 13.2271 10.2507C11.9638 11.231 10.9427 12.4826 10.2415 13.9104C9.54034 15.3382 9.17709 16.905 9.1797 18.4919V23.2132C9.1797 25.0218 9.90716 26.7565 11.2021 28.0354C12.497 29.3143 14.2533 30.0328 16.0846 30.0328H23.5207C25.3519 30.0328 27.1083 29.3143 28.4032 28.0354C29.6981 26.7565 30.4256 25.0218 30.4256 23.2132V18.4919C30.4256 16.6502 29.9348 14.8409 29.0024 13.246C28.0701 11.6511 26.7289 10.3266 25.1141 9.40573C23.4993 8.48491 21.6674 8.00013 19.8026 8.00013H19.8024Z" stroke="white"/>
<path d="M11.9326 28.8516V29.4012C11.9326 29.7324 12.0984 31.3992 12.3935 31.6333C12.6886 31.8675 13.0891 31.9991 13.5064 31.9991H26.0966C26.5139 31.9991 26.9144 31.8675 27.2094 31.6333C27.5045 31.3991 27.6703 29.7323 27.6703 29.4012V28.8516" stroke="white"/>
<path d="M30.4834 17.8359V23.7376C31.2132 23.4887 31.6627 23.0288 31.6637 22.5307V19.0427C31.6627 18.5447 31.2132 18.0848 30.4834 17.8359Z" stroke="white"/>
<path d="M9.17871 17.8359V23.7376C8.4489 23.4887 7.99944 23.0288 7.99838 22.5307V19.0427C7.99944 18.5447 8.4489 18.0848 9.17871 17.8359Z" stroke="white"/>
</svg>
